SplineFontDB: 3.0
FontName: GoudyBookltr1911-OpenCaps
FullName: Goudy Bookletter 1911 Open Capitals
FamilyName: Goudy Bookletter 1911 Open Caps
Weight: Regular
Copyright: Copyright (c) 2009 Barry Schwartz\n\nPermission is hereby granted, free of charge, to any person obtaining a copy\nof this software and associated documentation files (the "Software"), to deal\nin the Software without restriction, including without limitation the rights\nto use, copy, modify, merge, publish, distribute, sublicense, and/or sell\ncopies of the Software, and to permit persons to whom the Software is\nfurnished to do so, subject to the following conditions:\n\nThe above copyright notice and this permission notice shall be included in\nall copies or substantial portions of the Software.\n\nTHE SOFTWARE IS PROVIDED "AS IS", WITHOUT WARRANTY OF ANY KIND, EXPRESS OR\nIMPLIED, INCLUDING BUT NOT LIMITED TO THE WARRANTIES OF MERCHANTABILITY,\nFITNESS FOR A PARTICULAR PURPOSE AND NONINFRINGEMENT. IN NO EVENT SHALL THE\nAUTHORS OR COPYRIGHT HOLDERS BE LIABLE FOR ANY CLAIM, DAMAGES OR OTHER\nLIABILITY, WHETHER IN AN ACTION OF CONTRACT, TORT OR OTHERWISE, ARISING FROM,\nOUT OF OR IN CONNECTION WITH THE SOFTWARE OR THE USE OR OTHER DEALINGS IN\nTHE SOFTWARE.\n
UComments: "Open caps (36pt): cut 3200-dpi samples 2000 pixels high, then scale them to 90%. Print at 48pt to get about the same size as the 36pt foundry type." 
Version: 001.000
ItalicAngle: 0
UnderlinePosition: -204
UnderlineWidth: 102
Ascent: 1548
Descent: 500
LayerCount: 3
Layer: 0 0 "Back"  1
Layer: 1 0 "Fore"  0
Layer: 2 0 "backup"  1
XUID: [1021 658 797806517 11473725]
FSType: 0
OS2Version: 0
OS2_WeightWidthSlopeOnly: 0
OS2_UseTypoMetrics: 1
CreationTime: 1249326201
ModificationTime: 1280123025
PfmFamily: 17
TTFWeight: 400
TTFWidth: 5
LineGap: 184
VLineGap: 0
OS2TypoAscent: 0
OS2TypoAOffset: 1
OS2TypoDescent: 0
OS2TypoDOffset: 1
OS2TypoLinegap: 184
OS2WinAscent: 0
OS2WinAOffset: 1
OS2WinDescent: 0
OS2WinDOffset: 1
HheadAscent: 0

StartChar: b
Encoding: 98 98 1
Width: 1225
VWidth: 0
Flags: W
HStem: 6 54<44.1477 209.307 223 362 459.827 787.884> 734 51<411.445 727.619> 1322 55<24.0837 197.711 227 342 402.912 698.188>
VStem: 241 35<105.955 1219.03> 324 77<107.662 731.605 785.541 1319.81> 872 30<957.629 1135.22> 962 94<927.667 1191.88> 982 32<294.271 503.867> 1075 93<240.496 558.613>
LayerCount: 3
Fore
Refer: 27 66 N 1 0 0 1 0 0 2
Validated: 1
Layer: 2
SplineSet
14 1294 m 4
 14 1342 44 1340 222 1414 c 4
 234 1419 245 1422 256 1422 c 4
 284 1422 306 1402 306 1346 c 4
 306 1259 289 998 279 730 c 5
 295 745 372 861 550 861 c 4
 745 861 942 728 942 450 c 4
 942 225 798 -16 498 -16 c 4
 388 -16 300 0 241 0 c 4
 198 0 189 -36 162 -36 c 4
 143 -36 127 -18 127 -2 c 4
 127 19 142 498 142 969 c 4
 142 1050 141 1130 140 1208 c 5
 103 1248 14 1242 14 1294 c 4
486 63 m 4
 704 63 799 213 799 372 c 4
 799 551 679 741 481 741 c 4
 299 741 283 601 283 455 c 6
 283 363 l 6
 283 152 284 63 486 63 c 4
EndSplineSet
EndChar

StartChar: c
Encoding: 99 99 2
Width: 1518
VWidth: -15
Flags: W
HStem: -39 73<604.945 1010.19> 1203 75<1146.35 1247.59> 1354 63<570.978 924.515> 1369 20<1266.5 1298.5>
VStem: 58 31<540.56 843.224> 144 106<400.764 964.862> 1286 56<882.477 1031.45 1057 1126.37>
LayerCount: 3
Fore
Refer: 28 67 N 1 0 0 1 0 0 2
Validated: 1
Layer: 2
SplineSet
805 202 m 4
 805 119 632 -20 435 -20 c 4
 217 -20 40 152 40 404 c 4
 40 681 249 871 459 871 c 4
 618 871 747 797 747 720 c 4
 747 674 706 636 665 636 c 4
 592 636 539 758 390 758 c 4
 300 758 189 690 189 466 c 4
 189 319 278 111 487 111 c 4
 632.15234375 111 698.036132812 173.580078125 737 208.356445312 c 4
 755.74609375 225.086914062 770.333007812 231.4140625 781.106445312 231.4140625 c 4
 797.434570312 231.4140625 805 216.877929688 805 202 c 4
EndSplineSet
EndChar

StartChar: f
Encoding: 102 102 5
Width: 1239
VWidth: 0
Flags: W
HStem: 3 65<137.896 304.573 316 476 545.98 783.987> 768 70<500.178 936.541> 1329 67<104.013 303.642 317 456 503.95 1004>
VStem: 342 35<138.302 1257.84> 430 70<114.013 768 838.023 1319.91> 964 58<549.956 743.624 871.297 1031.96>
LayerCount: 3
Fore
Refer: 31 70 N 1 0 0 1 0 0 2
Validated: 1
Layer: 2
SplineSet
141 95 m 2
 174 95 176 107 176 141 c 2
 176 198 l 2
 176 252 178 198 178 739 c 1
 50 740 l 2
 37 740 26 746 26 783 c 0
 26 820 47 854 66 854 c 2
 183 854 l 1
 183 889 l 2
 183 1263 426 1468 620 1468 c 0
 761 1468 799 1403 799 1369 c 0
 799 1332 771 1267 713 1267 c 0
 637 1267 595 1336 528 1336 c 0
 378 1336 328 1126 328 902 c 2
 328 854 l 1
 551 854 l 2
 564 854 571 833 571 802 c 0
 571 763 546 739 523 739 c 2
 334 739 l 1
 334 561 334 383 334 205 c 0
 334 106 351 98 392 98 c 0
 408 98 423 99 434 99 c 0
 483 99 484 58 484 46 c 0
 484 7 452 -5 410 -5 c 0
 399 -5 294 0 255 0 c 0
 225 0 94 -6 84 -6 c 0
 56 -6 35 12 35 36 c 0
 35 77 60 95 93 95 c 2
 141 95 l 2
EndSplineSet
EndChar

StartChar: k
Encoding: 107 107 10
Width: 1450
VWidth: 0
Flags: W
HStem: 6 54<63.4353 235.907 258 391.104 443.2 619.581 1051 1153 1226.54 1405.44> 1311 57<51.9844 231.621 237.405 379 429.08 578.597 745.588 917.89 1077.18 1227.86> 1320 72<1077.18 1280.5>
VStem: 257 33<95.0179 1259.19> 337 82<71.6298 625 731.006 1310.3>
DStem2: 471 673 446 649 0.682235 -0.731133<0.491303 852.654> 560 762 509 711 0.678974 -0.734162<2.81457 920.476>
LayerCount: 3
Fore
Refer: 36 75 N 1 0 0 1 0 0 2
Validated: 1
Layer: 2
SplineSet
565 715 m 4
 565 765 452 715 452 784 c 4
 452 792 462 823 507 823 c 4
 554 823 548 817 668 817 c 4
 756 817 828 825 844 825 c 4
 874 825 880 811 880 784 c 4
 880 745 859 743 824 741 c 4
 784 739 751 733 722 719 c 4
 710 713 622 648 574 597 c 6
 480 497 l 5
 670 243 l 6
 798 73 843 70 882 70 c 6
 901 70 l 6
 916 70 922 54 922 32 c 4
 922 -9 904 -20 871 -20 c 4
 827 -20 755 0 658 0 c 4
 644 0 563 -8 534 -8 c 4
 508 -8 488 9 488 30 c 4
 488 63 510 68 539 68 c 4
 564 68 588 70 588 94 c 4
 588 147 414 366 384 405 c 5
 303 326 l 5
 307 79 293 70 416 68 c 4
 438 68 457 54 457 32 c 4
 457 17 457 -6 415 -6 c 4
 352 -6 307 3 249 3 c 4
 215 3 97 -7 60 -7 c 4
 34 -7 21 9 21 30 c 4
 21 66 49 73 66 74 c 4
 122 76 165 64 166 142 c 6
 177 1206 l 6
 178 1255 44 1254 44 1302 c 4
 44 1330 115 1347 172 1368 c 4
 235 1391 268 1403 289 1403 c 4
 306 1403 324 1393 323 1364 c 6
 306 432 l 5
 482 617 565 681 565 715 c 4
478 28 m 0
 478 89 573 47 573 102 c 0
 573 155 394 366 364 405 c 1
 290 329 l 1
 294 82 280 78 396 68 c 0
 418 66 442 53 442 31 c 0
 442 16 427 -4 385 -4 c 0
 322 -4 287 0 229 0 c 0
 195 0 140 -4 103 -4 c 0
 77 -4 50 7 50 28 c 0
 50 64 78 63 95 67 c 0
 152 82 152 93 152 177 c 2
 157 1216 l 2
 157 1265 49 1281 49 1312 c 0
 49 1333 83 1344 94 1347 c 2
 94 1347 243 1406 267 1406 c 0
 290 1406 295 1384 295 1364 c 2
 288 432 l 1
 432 583 545 683 545 722 c 0
 545 775 455 754 455 799 c 0
 455 807 459 827 509 827 c 0
 523 827 549 823 643 823 c 0
 731 823 774 827 790 827 c 0
 820 827 842 824 842 797 c 0
 842 758 808 766 735 747 c 0
 686 734 603 653 539 587 c 2
 447 492 l 1
 644 243 l 1
 788 64 816 76 851 67 c 0
 866 64 886 53 886 31 c 0
 886 16 870 -4 828 -4 c 0
 797 -4 751 0 673 0 c 0
 659 0 560 -4 531 -4 c 0
 505 -4 478 7 478 28 c 0
EndSplineSet
EndChar

StartChar: m
Encoding: 109 109 12
Width: 2028
VWidth: 0
Flags: W
HStem: -10 95<457.083 642.122 965.841 1012.56> -5 63<92.468 255.56 1382.22 1545.33 1584 1643.25 1644.84 1692 1799.39 1966.68> 1321 58<64.9232 371 1613 1693 1763.5 1933.98>
VStem: 360 66<215.829 998.956> 1578 35<113.021 639.245> 1644 84<554.539 1297.6>
DStem2: 967 412 371 1328 0.482478 -0.875908<-1089.89 178.165> 972 106 497 922 -0.532018 0.846733<121.989 386.052> 1031 164 1050 52 0.429324 0.903151<-90.18 8.8293 98.3859 1049.07> 1582 1342 1584 1262 0.429324 0.903151<-99.5926 -0.238222>
LayerCount: 3
Fore
Refer: 38 77 N 1 0 0 1 0 0 2
Validated: 1
Layer: 2
SplineSet
69 34 m 4
 69 70 96 76 113 77 c 4
 183 81 184 81 185 177 c 6
 188 634 l 6
 188 672 174 674 142 688 c 6
 94 709 l 6
 78 716 71 726 71 738 c 4
 71 781 116 786 185 824 c 4
 233 850 280 881 301 881 c 4
 320 881 327 864 327 854 c 6
 327 727 l 5
 342 741 414 862 540 862 c 4
 716 862 785 720 785 720 c 5
 785 720 864 858 1003 858 c 4
 1301 858 1313 574 1313 370 c 4
 1313 326 1312 274 1312 220 c 4
 1312 81 1317 87 1373 80 c 4
 1408 76 1437 71 1437 33 c 4
 1437 18 1422 -2 1380 -2 c 4
 1317 -2 1287 2 1224 2 c 4
 1189 2 1096 -2 1070 -2 c 4
 1044 -2 1023 9 1023 30 c 4
 1023 94 1108 66 1135 86 c 4
 1153 99 1163 127 1163 160 c 6
 1163 411 l 6
 1163 448 1162 479 1160 506 c 4
 1146 701 1047 746 971 746 c 4
 856 746 815 665 811 663 c 5
 811 663 812 631 812 614 c 6
 812 163 l 6
 812 86 830 82 932 73 c 4
 966 70 967 47 967 32 c 4
 967 19 966 -2 918 -2 c 4
 906 -2 783 6 740 6 c 4
 724 6 578 -2 546 -2 c 4
 524 -2 514 13 514 34 c 4
 514 74 543 74 570 75 c 6
 601 76 l 6
 667 78 669 76 669 456 c 4
 669 617 650 750 476 750 c 4
 392 750 327 678 327 574 c 6
 327 159 l 6
 327 84 342 82 384 79 c 4
 436 75 471 76 471 41 c 4
 471 18 461 2 419 2 c 4
 363 2 327 6 263 6 c 4
 234 6 164 2 121 2 c 4
 95 2 69 13 69 34 c 4
EndSplineSet
EndChar

StartChar: r
Encoding: 114 114 17
Width: 1513
VWidth: 0
Flags: W
HStem: 0 41<1181.01 1208> 0 86<64.075 231.033 1193.05 1420.65> 5 57<223 362 455.877 650.464> 679 45<414.695 631.533> 1319 61<412.378 790.403> 1320 49<11.0586 189.418 216 345.95>
VStem: 237 31<95.9844 1244.64> 328 82<94.2312 678.991 726.372 1317.09> 894 34<919.475 1107.04> 991 77<900.917 1162.96>
LayerCount: 3
Fore
Refer: 43 82 N 1 0 0 1 0 0 2
Validated: 1
Layer: 2
SplineSet
514 718 m 4
 410 718 340 631 340 582 c 4
 338 301 337 266 337 231 c 4
 337 91 338 89 473 83 c 4
 516 81 539 61 539 29 c 4
 539 14 533 -14 481 -14 c 4
 477 -14 314 4 250 4 c 4
 188 4 111 0 96 0 c 4
 67 0 35 0 35 39 c 4
 35 72 72 78 90 80 c 4
 152 85 176 90 177 184 c 6
 184 665 l 6
 184 689 46 696 46 734 c 4
 46 759 56 773 91 790 c 6
 233 856 l 6
 278 877 292 888 310 888 c 4
 328 888 335 878 335 823 c 6
 335 714 l 5
 335 714 458 885 627 885 c 4
 665 885 723 870 723 789 c 4
 723 737 679 693 636 693 c 4
 583 693 567 718 514 718 c 4
EndSplineSet
EndChar

StartChar: s
Encoding: 115 115 18
Width: 1000
VWidth: 1020
Flags: W
HStem: -29 74<381.842 675.275> 147 60<124.143 166.099> 1243 59<660.928 737.882> 1340 54<308.717 551.369>
VStem: 81 31<949.584 1157.69> 140 76<984.454 1260.37> 148 36<321.094 361> 736 51<1122 1249> 819 35<276.455 471.639> 891 66<256.817 550.573>
LayerCount: 3
Fore
Refer: 44 83 N 1 0 0 1 0 0 2
Layer: 2
SplineSet
62 97 m 4
 62 114 72 177 72 207 c 4
 72 221 73 258 73 287 c 4
 73 335 90 351 117 351 c 4
 147 351 146 316 147 273 c 4
 148 228 148 173 255 108 c 4
 308 76 368 69 416 69 c 4
 508 69 569 141 569 200 c 4
 569 293 477 313 417 333 c 4
 196 408 107 405 107 596 c 4
 107 714 184 843 360 843 c 4
 458 843 513 804 530 788 c 5
 532 819 l 6
 532 833 535 847 566 847 c 6
 576 847 l 6
 592 847 596 844 600 793 c 6
 611 662 l 6
 612 655 613 642 613 628 c 4
 613 601 608 570 581 570 c 4
 559 570 547 585 541 608 c 4
 516 705 408 751 341 751 c 4
 296 751 217 749 217 639 c 4
 217 482 678 584 678 265 c 4
 678 44 474 -29 382 -29 c 4
 324 -29 270 -25 154 23 c 4
 81 53 62 57 62 97 c 4
EndSplineSet
EndChar

StartChar: w
Encoding: 119 119 22
Width: 1926
VWidth: 0
Flags: W
HStem: -14 21<1333 1355> 1318 69<183 342 418.924 571.765 728.255 857.75 864 981 1060.57 1214.63 1447.67 1622.06> 1378 20<1801.5 1849>
VStem: 311 100<1072.34 1313.18> 962 94<1127.69 1319.54> 1633 257<1214.5 1373>
DStem2: 303 1074 214 1224 0.324521 -0.945879<-242.123 1054.7> 470 1012 327 1152 0.327175 -0.944964<-233.462 804.51> 676 144 696 -2 0.305405 0.952223<-70.7872 0> 912 1234 960 965 0.315446 -0.948944<-102.178 270.407 365.583 1008.84> 1326 82 1373 5 0.289097 0.9573<0 125.989 233.426 620.928>
LayerCount: 3
Fore
Refer: 48 87 N 1 0 0 1 0 0 2
Layer: 2
SplineSet
1346 713 m 4
 1346 802 1206 720 1206 812 c 4
 1206 839 1243 847 1273 847 c 4
 1328 847 1359 839 1436 839 c 4
 1466 839 1514 842 1537 842 c 4
 1568 842 1570 819 1570 807 c 4
 1570 771 1522 762 1485 744 c 4
 1441 722 1469 676 1238 171 c 4
 1217 126 1169 -13 1127 -13 c 4
 1081 -13 1010 119 946 248 c 6
 834 475 l 5
 834 475 676 93 632 31 c 4
 612 2 604 -15 570 -15 c 4
 510 -15 447 106 377 260 c 4
 188 673 181 761 123 764 c 4
 62 767 36 764 36 824 c 4
 36 852 57 858 81 858 c 4
 106 858 151 850 264 850 c 4
 352 850 406 854 422 854 c 4
 452 854 482 845 482 809 c 4
 482 779 468 768 423 768 c 4
 406 768 395 769 388 769 c 4
 362 769 345 755 345 735 c 4
 345 697 561 190 590 190 c 4
 607 190 724 396 777 577 c 5
 756 624 712 711 699 734 c 4
 658 807 542 736 542 811 c 4
 542 828 551 850 590 850 c 4
 605 850 776 839 834 839 c 4
 891 839 932 847 1010 847 c 4
 1040 847 1077 834 1077 807 c 4
 1077 772 1049 759 1014 759 c 6
 954 759 l 6
 917 759 886 745 886 715 c 4
 886 683 926 609 959 547 c 4
 1133 212 1127 211 1142 211 c 4
 1176 211 1346 580 1346 713 c 4
EndSplineSet
EndChar

StartChar: x
Encoding: 120 120 23
Width: 1444
VWidth: 0
Flags: W
HStem: -3 65<28.1218 172.518 781.007 947.907 964 1122> 1307 60<224 389 456.021 605.852 813.605 995.74>
VStem: 28 326<16.5 151.5> 370 86<1196.81 1307.88> 389 67<1253.13 1307.82> 948 29<70.6378 164.872>
DStem2: 380 1114 282 1202 0.534838 -0.844954<-213.014 488.306 575.648 1117.93> 776 776 405 1178 0.529555 -0.848276<-22.3486 787.183>
LayerCount: 3
Fore
Refer: 49 88 N 1 0 0 1 0 0 2
Validated: 1
Layer: 2
SplineSet
22 37 m 4
 22 70 50 79 71 79 c 6
 107 79 l 6
 143 79 147 81 169 107 c 4
 207 150 405 426 405 426 c 5
 195 707 184 723 126 739 c 4
 67 755 29 738 29 792 c 4
 29 808 49 824 78 824 c 4
 92 824 170 821 264 821 c 4
 352 821 373 825 389 825 c 4
 419 825 450 815 450 788 c 4
 450 736 371 774 371 718 c 4
 371 696 494 537 494 537 c 5
 494 537 622 696 622 724 c 4
 622 765 546 741 546 788 c 4
 546 815 572 824 602 824 c 4
 615 824 668 822 715 822 c 4
 745 822 840 828 857 828 c 4
 909 828 916 802 916 790 c 4
 916 725 839 763 778 735 c 4
 752 723 724 698 698 663 c 6
 546 462 l 5
 791 130 809 108 827 94 c 4
 862 66 942 103 942 40 c 4
 942 3 920 -4 892 -4 c 4
 857 -4 840 0 718 0 c 4
 683 0 568 -4 542 -4 c 4
 516 -4 492 11 492 32 c 4
 492 102 618 57 618 99 c 4
 618 133 456 348 456 348 c 5
 456 348 285 140 285 103 c 4
 285 50 376 94 376 38 c 4
 376 23 369 -4 327 -4 c 4
 276 -4 302 0 72 0 c 4
 46 0 22 9 22 37 c 4
EndSplineSet
EndChar

StartChar: A
Encoding: 65 65 26
Width: 1739
VWidth: -15
Flags: W
HStem: -11 21G<41.5 60> -8 54<417.053 561.451> -5 60<1130.02 1267.21 1292 1449 1550.81 1699.57> 635 73<610.408 1070.34> 1197 42<841.624 880.234> 1315 103<872.239 919.603>
VStem: 18 345<4 157.5> 1286 37<85.4657 227.735>
DStem2: 406 455 525 561 0.453711 0.891149<-196.942 247.564 893.789 985.871> 999 990 1028 837 0.373445 -0.927652<-222.512 277.508 371.545 711.82> 1260 703 1318 349 0.390222 -0.920721<-683.134 664.828>
LayerCount: 3
Fore
SplineSet
18 16 m 0x9f
 18 78 104 22 186 93 c 0
 262 160 301 242 406 455 c 2
 659 968 l 2
 776 1204 840 1324 880 1386 c 0
 894 1408 906 1418 916 1418 c 0
 936 1418 952 1383 978 1333 c 0
 1044 1206 1250 727 1260 703 c 2
 1488 156 l 2
 1518 84 1581 62 1666 62 c 0
 1680 62 1701 55 1701 39 c 0
 1701 4 1683 -1 1640 -1 c 0
 1594 -1 1519 6 1407 6 c 0
 1315 6 1211 -5 1177 -5 c 0
 1157 -5 1130 -3 1130 26 c 0
 1130 52 1156 55 1178 55 c 2
 1186 55 l 2x3f
 1229 55 1286 57 1286 161 c 0
 1286 187 1266 239 1216 370 c 2
 1132 591 l 2
 1117 630 1105 635 979 635 c 0
 943 635 677 637 622 637 c 0
 556 637 559 629 525 561 c 0
 490 491 363 186 363 129 c 0
 363 55 531 56 548 46 c 0
 556 42 562 33 562 25 c 0
 562 18 560 -8 520 -8 c 0x5f
 452 -8 384 -2 308 -2 c 0
 100 -2 73 -11 47 -11 c 0
 36 -11 18 -8 18 16 c 0x9f
609 724 m 0
 609 713 625 712 651 712 c 0
 703 712 774 710 837 710 c 0
 925 710 889 708 1029 708 c 0
 1057 708 1072 710 1072 720 c 0
 1072 725 1070 733 1066 745 c 2
 1028 837 l 2
 933 1067 883 1197 861 1197 c 0
 825 1197 609 728 609 724 c 0
840 1237 m 1
 840 1237 844 1239 854 1239 c 0
 899 1239 919 1182 999 990 c 2
 1129 677 l 2
 1209 484 1323 225 1323 142 c 0
 1323 102 1292 61 1292 61 c 1
 1314 64 1338 64 1361 64 c 0
 1390 64 1421 63 1449 61 c 1
 1449 61 1423 89 1401 144 c 2
 1318 349 l 2
 1108 867 1040 1035 942 1227 c 2
 902 1305 l 2
 897 1314 894 1315 890 1315 c 0
 885 1315 878 1305 875 1299 c 2
 840 1237 l 1
EndSplineSet
Validated: 1
EndChar

StartChar: B
Encoding: 66 66 27
Width: 1225
VWidth: 0
Flags: W
HStem: 6 54<44.1477 209.307 223 362 459.827 787.884> 734 51<411.445 727.619> 1322 55<24.0837 197.711 227 342 402.912 698.188>
VStem: 241 35<105.955 1219.03> 324 77<107.662 731.605 785.541 1319.81> 872 30<957.629 1135.22> 962 94<927.667 1191.88> 982 32<294.271 503.867> 1075 93<240.496 558.613>
LayerCount: 3
Fore
SplineSet
24 1348 m 0xfe80
 24 1364 36 1377 75 1377 c 2
 199 1377 l 2
 278 1377 431 1385 608 1385 c 0
 683 1385 822 1379 900 1326 c 0
 986 1268 1056 1209 1056 1084 c 0
 1056 848 815 773 815 773 c 1
 885 773 1168 700 1168 408 c 0
 1168 251 1072 141 940 75 c 0
 812 11 658 0 536 0 c 0
 439 0 388 6 291 6 c 0
 164 6 102 -1 72 -1 c 0
 50 -1 43 4 43 25 c 0
 43 54 76 58 114 58 c 0
 141 58 193 60 226 105 c 0
 240 124 241 232 241 340 c 2
 241 416 l 2
 241 514 240 602 240 620 c 2
 238 848 l 2
 235 1197 241 1288 180 1304 c 0
 144 1313 128 1316 106 1316 c 2
 71 1316 l 2
 53 1316 24 1321 24 1348 c 0xfe80
223 57 m 1
 249 59 277 60 304 60 c 0
 322 60 344 60 362 58 c 1
 327 113 324 164 324 381 c 2
 322 1113 l 2
 322 1328 341 1322 342 1326 c 1
 324 1323 304 1322 285 1322 c 0
 263 1322 242 1323 227 1324 c 1
 247 1308 266 1290 268 1158 c 0
 275 593 276 686 276 537 c 2
 276 410 l 2
 276 277 273 147 266 115 c 0
 255 68 223 57 223 57 c 1
396 1195 m 2
 401 873 l 2
 403 794 392 785 462 785 c 0
 681 785 713 795 771 834 c 0
 849 885 872 971 872 1049 c 0
 872 1160 802 1322 530 1322 c 2
 490 1322 l 2
 402 1322 402 1314 398 1254 c 0
 397 1240 396 1214 396 1195 c 2
401 278 m 2
 401 74 468 59 616 59 c 2
 642 59 l 2
 712 59 806 65 904 176 c 0
 949 226 982 280 982 400 c 0xfd80
 982 577 864 658 833 677 c 0
 745 729 635 734 558 734 c 2
 466 734 l 2
 421 734 402 724 402 646 c 2
 401 278 l 2
742 1302 m 0
 742 1296 902 1237 902 1054 c 0
 902 887 793 823 793 821 c 0
 793 820 796 820 796 820 c 1
 803 826 962 874 962 1056 c 0xfe80
 962 1245 768 1303 745 1303 c 0
 744 1303 742 1303 742 1302 c 0
848 91 m 1
 849 91 850 91 851 91 c 0
 858 98 1075 157 1075 415 c 0
 1075 594 892 686 869 686 c 0
 868 686 866 686 866 685 c 0
 866 678 1014 602 1014 408 c 0xfd80
 1014 181 848 100 848 91 c 1
EndSplineSet
Validated: 1
EndChar

StartChar: C
Encoding: 67 67 28
Width: 1518
VWidth: -15
Flags: W
HStem: -39 73<604.945 1010.19> 1203 75<1146.35 1247.59> 1354 63<570.978 924.515> 1369 20G<1266.5 1298.5>
VStem: 58 31<540.56 843.224> 144 106<400.764 964.862> 1286 56<882.477 1031.45 1057 1126.37>
LayerCount: 3
Fore
SplineSet
58 671 m 0xee
 58 863 107 1048 246 1208 c 0
 354 1333 521 1417 750 1417 c 0xee
 1027 1417 1190 1278 1220 1278 c 0
 1259 1278 1245 1389 1288 1389 c 0xde
 1309 1389 1314 1371 1314 1355 c 0
 1314 1294 1316 1314 1316 1287 c 0
 1316 1149 1342 1032 1342 946 c 0
 1342 916 1326 880 1305 880 c 0
 1290 880 1286 891 1286 903 c 2
 1286 921 l 2
 1286 987 1268 1020 1226 1085 c 0
 1142 1216 975 1354 744 1354 c 0
 597 1354 507 1304 432 1226 c 0
 290 1078 250 878 250 707 c 0
 250 153 586 34 810 34 c 0
 874 34 1102 43 1273 262 c 0
 1366 381 1347 495 1394 495 c 0
 1411 495 1419 486 1419 473 c 0
 1419 453 1414 474 1384 271 c 0
 1357 92 1374 85 1342 85 c 0
 1315 85 1312 133 1292 133 c 0
 1280 133 1126 -39 767 -39 c 0
 371 -39 58 238 58 671 c 0xee
89 693 m 0
 89 322 331 117 351 117 c 0
 352 117 353 118 353 119 c 0
 353 133 144 291 144 699 c 0
 144 1077 387 1281 387 1292 c 0
 387 1293 386 1293 386 1293 c 1
 376 1293 89 1083 89 693 c 0
1105 1257 m 1
 1164 1213 1244 1124 1275 1057 c 9
 1255 1207 l 17
 1250 1204 1244 1203 1237 1203 c 0
 1198 1203 1138 1245 1105 1257 c 1
EndSplineSet
Validated: 1
EndChar

StartChar: D
Encoding: 68 68 29
Width: 1543
VWidth: 0
Flags: W
HStem: 6 64<263 406.47 497.221 892.74> 1314 66<40.0815 246.708 258 391.696 463.155 809.912>
VStem: 278 36<118.18 1252.46> 364 86<105.365 1307.31> 1265 35<517.916 819.196> 1361 104<473.952 900.806>
LayerCount: 3
Fore
SplineSet
40 1349 m 0
 40 1365 49 1380 74 1380 c 0
 139 1380 188 1378 235 1378 c 0
 308 1378 518 1382 551 1382 c 0
 725 1382 916 1365 1062 1284 c 0
 1196 1209 1465 1049 1465 697 c 0
 1465 395 1207 -2 618 -2 c 0
 521 -2 428 6 331 6 c 0
 268 6 218 0 167 0 c 0
 140 0 120 -2 104 -2 c 2
 96 -2 l 2
 75 -2 58 0 58 28 c 0
 58 99 221 31 265 126 c 0
 277 152 278 193 278 257 c 2
 278 305 l 1
 280 1038 l 2
 280 1278 252 1314 169 1314 c 2
 106 1314 l 2
 68 1314 40 1315 40 1349 c 0
258 1324 m 1
 278 1307 314 1250 314 1158 c 2
 314 548 l 2
 314 475 315 402 315 328 c 0
 315 254 314 182 308 150 c 0
 296 91 263 66 263 66 c 1
 274 68 304 70 334 70 c 0
 365 70 396 68 407 64 c 1
 370 91 368 123 368 177 c 0
 368 346 364 58 364 1102 c 2
 364 1113 l 2
 364 1201 367 1253 373 1284 c 0
 380 1320 393 1329 393 1329 c 1
 365 1321 349 1320 326 1320 c 0
 299 1320 272 1322 258 1324 c 1
446 282 m 2
 446 89 487 99 582 80 c 0
 602 76 661 71 718 71 c 0
 901 71 1265 165 1265 678 c 0
 1265 983 1064 1151 1017 1186 c 0
 851 1306 661 1312 553 1312 c 2
 518 1312 l 2
 455 1312 450 1255 450 1201 c 2
 446 282 l 2
1030 1208 m 0
 1030 1197 1300 1037 1300 674 c 0
 1300 379 1146 223 1146 219 c 0
 1146 218 1149 218 1149 218 c 1
 1156 229 1361 376 1361 685 c 0
 1361 1030 1056 1209 1033 1209 c 0
 1032 1209 1030 1209 1030 1208 c 0
EndSplineSet
Validated: 1
EndChar

StartChar: E
Encoding: 69 69 30
Width: 1239
VWidth: 0
Flags: W
HStem: -4 64<79.0493 255.824 273 436 504.085 965.285> 768 68<460.254 886.262> 1329 59<76.218 260.889 274 413 473.127 940.996>
VStem: 297 22<151.125 450.399 572.476 1255.23> 384 76<97.2572 767.859 839.375 1316.84> 906 57<546.942 748.2 858.315 1035.99>
LayerCount: 3
Fore
SplineSet
79 27 m 0
 79 48 96 60 115 60 c 2
 146 60 l 2
 244 60 297 82 297 254 c 0
 297 375 298 655 298 883 c 2
 298 1071 l 2
 298 1283 298 1329 134 1329 c 2
 122 1329 l 2
 80 1329 76 1347 76 1364 c 0
 76 1383 95 1388 114 1388 c 2
 257 1388 l 2
 353 1388 545 1391 739 1391 c 0
 871 1391 1015 1395 1048 1395 c 0
 1061 1395 1069 1386 1071 1372 c 2
 1106 1124 l 2
 1108 1115 1108 1108 1108 1101 c 0
 1108 1078 1100 1070 1090 1070 c 0
 1060 1070 1074 1102 941 1302 c 0
 928 1321 931 1323 907 1323 c 0
 803 1325 750 1325 663 1325 c 2
 592 1325 l 2
 499 1325 460 1324 460 1247 c 2
 460 880 l 2
 460 840 463 836 604 836 c 0
 673 836 729 840 820 841 c 1
 888 843 893 870 899 926 c 0
 903 958 906 976 906 1006 c 0
 906 1026 918 1036 935 1036 c 0
 953 1036 963 1023 963 994 c 0
 963 918 959 866 959 792 c 0
 959 624 967 597 967 575 c 0
 967 562 960 545 947 545 c 0
 914 545 915 571 908 633 c 0
 898 722 895 765 828 765 c 2
 489 768 l 2
 470 768 457 755 457 736 c 2
 457 649 l 2
 457 592 458 586 462 297 c 0
 464 126 471 74 578 74 c 0
 992 74 982 96 990 107 c 0
 1008 131 1028 175 1071 240 c 0
 1142 348 1150 356 1170 356 c 0
 1184 356 1188 343 1188 336 c 0
 1188 318 1139 177 1107 18 c 0
 1104 4 1094 2 1079 2 c 2
 1054 2 l 2
 928 2 483 3 353 3 c 0
 264 3 204 -4 116 -4 c 0
 90 -4 79 9 79 27 c 0
273 64 m 1
 273 64 339 68 358 68 c 0
 379 68 436 67 436 67 c 1
 390 99 385 153 385 203 c 0
 385 303 384 203 384 1204 c 2
 384 1215 l 2
 384 1321 413 1331 413 1331 c 1
 389 1327 364 1327 341 1327 c 0
 314 1327 288 1329 274 1331 c 1
 294 1319 329 1270 329 1160 c 0
 329 977 330 1038 330 550 c 2
 330 455 l 2
 330 358 329 186 319 135 c 0
 307 76 273 64 273 64 c 1
EndSplineSet
Layer: 2
SplineSet
914 545 m 6
 886 545 874 568 872 615 c 6
 870 653 l 6
 867 706 868 754 816 754 c 6
 450 752 l 5
 450 255 l 6
 450 123 461 121 559 121 c 4
 958 121 952 136 960 147 c 4
 973 164 1007 219 1036 273 c 6
 1087 369 l 6
 1097 386 1112 395 1122 395 c 4
 1137 395 1162 384 1162 362 c 4
 1162 344 1120 160 1088 16 c 4
 1085 2 1075 0 1060 0 c 4
 914 0 641 2 495 2 c 4
 406 2 194 -2 106 -2 c 4
 86 -2 85 22 85 44 c 6
 85 52 l 6
 85 87 96 90 123 90 c 6
 185 90 l 6
 253 90 259 109 259 254 c 4
 259 424 275 509 275 1105 c 6
 275 1182 l 6
 275 1284 267 1302 182 1302 c 6
 147 1302 l 6
 117 1302 98 1305 98 1334 c 6
 98 1354 l 6
 98 1390 159 1390 178 1390 c 4
 222 1389 271 1388 323 1388 c 4
 714 1388 995 1408 1032 1408 c 4
 1045 1408 1067 1408 1070 1381 c 4
 1078 1295 1109 1118 1109 1108 c 4
 1109 1086 1102 1065 1072 1065 c 4
 1048 1065 1049 1070 942 1251 c 4
 930 1271 904 1284 869 1284 c 6
 540 1284 l 6
 453 1284 455 1274 454 1204 c 4
 452 1097 452 852 452 852 c 5
 520 852 655 854 790 856 c 4
 863 857 871 861 878 994 c 4
 879 1005 878 1044 920 1044 c 4
 938 1044 958 1033 958 1004 c 4
 958 928 953 866 953 792 c 4
 953 700 962 636 962 596 c 4
 962 561 955 545 928 545 c 6
 914 545 l 6
EndSplineSet
EndChar

StartChar: F
Encoding: 70 70 31
Width: 1239
VWidth: 0
Flags: W
HStem: 3 65<137.896 304.573 316 476 545.98 783.987> 768 70<500.178 936.541> 1329 67<104.013 303.642 317 456 503.95 1004>
VStem: 342 35<138.302 1257.84> 430 70<114.013 768 838.023 1319.91> 964 58<549.956 743.624 871.297 1031.96>
LayerCount: 3
Fore
SplineSet
104 1364 m 0
 104 1383 121 1396 140 1396 c 0
 201 1396 253 1390 300 1390 c 0
 396 1390 588 1394 782 1394 c 0
 914 1394 1080 1403 1113 1403 c 0
 1126 1403 1130 1386 1132 1372 c 2
 1171 1124 l 2
 1173 1106 1173 1099 1173 1093 c 0
 1173 1082 1162 1078 1151 1078 c 0
 1121 1078 1137 1100 1004 1300 c 0
 991 1319 992 1326 968 1326 c 0
 864 1328 793 1328 706 1328 c 2
 642 1328 l 2
 544 1328 500 1325 500 1274 c 0
 500 1134 499 1046 499 900 c 0
 499 869 500 838 531 838 c 0
 669 838 726 844 864 844 c 0
 915 844 964 858 964 989 c 2
 964 1002 l 2
 964 1022 977 1032 994 1032 c 0
 1012 1032 1022 1019 1022 990 c 0
 1022 914 1018 866 1018 792 c 0
 1018 666 1030 606 1030 578 c 0
 1030 564 1019 548 1005 548 c 0
 954 548 966 625 957 689 c 0
 951 733 927 771 876 771 c 2
 532 768 l 2
 513 768 500 755 500 736 c 0
 500 564 500 682 506 297 c 0
 508 138 513 68 655 68 c 0
 686 68 720 69 750 69 c 0
 767 69 784 54 784 36 c 0
 784 9 766 -6 735 -6 c 0
 609 -6 526 3 396 3 c 0
 307 3 270 -3 182 -3 c 0
 156 -3 137 10 137 28 c 0
 137 52 157 64 176 64 c 0
 271 64 341 70 341 254 c 0
 341 283 342 336 342 416 c 0
 342 872 336 1093 336 1168 c 0
 336 1313 288 1329 162 1329 c 2
 150 1329 l 2
 108 1329 104 1347 104 1364 c 0
316 64 m 1
 346 66 375 68 405 68 c 0
 429 68 452 68 476 64 c 1
 466 73 432 65 430 272 c 0
 427 583 422 1174 422 1205 c 0
 422 1322 456 1331 456 1331 c 1
 432 1327 407 1325 384 1325 c 0
 357 1325 331 1328 317 1330 c 1
 337 1318 370 1282 370 1160 c 0
 370 866 377 308 377 279 c 0
 377 83 320 67 316 64 c 1
EndSplineSet
Validated: 1
EndChar

StartChar: G
Encoding: 71 71 32
Width: 1525
VWidth: 0
Flags: W
HStem: -36 66<637.052 986.094> 129 60<1186.83 1248.43> 543 62<900.654 1115.18 1129 1258.83 1332.51 1480.77> 1186 66<1151.91 1240.38> 1354 58<549.037 901.706>
VStem: 58 38<526.701 857.865> 151 106<430.904 966.586> 1153 34<181.748 477.918> 1237 89<188 546.331 1044.64 1158.75> 1241 68<1044.64 1193>
LayerCount: 3
Fore
SplineSet
58 671 m 0xff80
 58 863 107 1040 246 1200 c 0
 354 1325 505 1412 734 1412 c 0
 1011 1412 1181 1252 1211 1252 c 0
 1250 1252 1246 1365 1300 1365 c 0
 1315 1365 1316 1357 1316 1348 c 0
 1316 1280 1309 1288 1309 1161 c 0xff40
 1309 1114 1328 998 1328 941 c 0
 1328 904 1318 882 1292 882 c 0
 1250 882 1296 939 1220 1055 c 0
 1120 1207 958 1354 744 1354 c 0
 555 1354 495 1311 419 1234 c 0
 272 1085 257 878 257 707 c 0
 257 554 292 437 329 338 c 0
 420 92 658 30 866 30 c 0
 930 30 1059 82 1125 153 c 0
 1147 177 1153 244 1153 286 c 0
 1153 327 1147 342 1144 437 c 0
 1140 550 1049 536 962 543 c 0
 928 546 899 555 899 585 c 0
 899 603 915 605 934 605 c 2
 950 605 l 2
 983 605 1059 600 1126 600 c 0
 1184 600 1420 613 1426 613 c 0
 1480 613 1482 597 1482 581 c 0
 1482 565 1468 548 1386 548 c 0
 1341 548 1326 520 1326 461 c 2
 1326 409 l 2
 1326 331 1327 342 1327 252 c 0
 1327 242 1330 195 1330 154 c 2
 1330 137 l 2
 1330 113 1329 93 1308 93 c 0
 1279 93 1271 129 1242 129 c 0
 1190 129 1084 -36 801 -36 c 0
 207 -36 58 421 58 671 c 0xff80
96 691 m 0
 96 270 412 67 432 67 c 0
 433 67 434 68 434 69 c 0
 434 83 151 291 151 699 c 0
 151 1077 387 1281 387 1292 c 0
 387 1293 386 1293 386 1293 c 1
 376 1293 96 1081 96 691 c 0
1096 1231 m 1
 1168 1175 1224 1110 1255 1043 c 1
 1247 1078 1241 1115 1241 1151 c 0
 1241 1165 1242 1179 1244 1193 c 1
 1234 1188 1223 1186 1212 1186 c 0
 1169 1186 1125 1220 1096 1231 c 1
1129 545 m 1
 1167 518 1187 513 1187 270 c 0
 1187 200 1160 157 1150 144 c 1
 1195 161 1199 189 1237 189 c 0
 1240 189 1249 188 1249 188 c 1
 1247 194 1243 199 1240 303 c 0
 1240 315 1237 405 1237 428 c 0xff80
 1237 535 1260 550 1260 550 c 1
 1235 543 1208 541 1184 541 c 0
 1160 541 1140 543 1129 545 c 1
EndSplineSet
Validated: 1
EndChar

StartChar: H
Encoding: 72 72 33
Width: 1579
VWidth: 0
Flags: W
HStem: -10 70<76.0153 235.216 248 366.667> 6 58<126.686 233.771 248 392 462.047 627.387 991.854 1290.49 1359.5 1529.05> 773 75<426.311 1175> 1323 55<63.6816 224.523 238 373 449.564 617.466 1000.04 1157.89 1162 1286>
VStem: 263 32<115.727 1081.87> 348 78<89.918 772.938 848.016 1309.02> 1175 35<102.403 659.981> 1258 78<83.4895 1304.15>
LayerCount: 3
Fore
SplineSet
63 1370 m 0xbf
 63 1389 78 1390 97 1390 c 2
 108 1390 l 2
 147 1390 249 1378 313 1378 c 0
 461 1378 512 1386 566 1386 c 0
 617 1386 618 1377 618 1364 c 2
 618 1361 l 2
 618 1331 613 1338 528 1328 c 0
 431 1317 421 1286 421 1086 c 0
 421 1048 422 1029 423 895 c 0
 423 853 424 848 468 848 c 2
 1146 846 l 2
 1173 846 1175 849 1175 878 c 2
 1175 1120 l 2
 1175 1323 1162 1325 1066 1332 c 0
 1007 1336 998 1333 998 1370 c 0
 998 1389 1013 1390 1032 1390 c 2
 1043 1390 l 2
 1082 1390 1164 1380 1228 1380 c 0
 1376 1380 1434 1396 1488 1396 c 0
 1510 1396 1524 1388 1524 1378 c 0
 1524 1330 1499 1344 1435 1329 c 0
 1339 1306 1334 1272 1334 1105 c 0
 1334 898 1336 690 1336 414 c 2
 1336 336 l 2
 1336 289 1335 250 1335 218 c 0
 1335 74 1348 78 1492 65 c 0
 1515 63 1530 64 1530 48 c 2
 1530 30 l 2
 1530 16 1526 1 1505 1 c 0
 1479 1 1398 6 1275 6 c 0x7f
 1226 6 1133 -4 1033 -4 c 0
 1008 -4 991 3 991 26 c 0
 991 55 1010 60 1029 60 c 0xbf
 1132 60 1162 89 1167 131 c 0
 1170 159 1179 173 1179 412 c 0
 1179 477 1175 639 1175 736 c 0
 1175 767 1173 769 1137 769 c 2
 456 773 l 2
 429 773 426 764 426 743 c 2
 426 336 l 2
 426 73 430 80 590 64 c 0x7f
 613 62 628 46 628 30 c 0
 628 13 616 -4 566 -4 c 0
 453 -4 492 4 369 4 c 0
 320 4 222 -10 122 -10 c 0
 97 -10 76 3 76 26 c 0
 76 55 95 60 114 60 c 0
 128 60 124 59 148 59 c 0
 249 59 252 132 252 145 c 0
 252 171 263 153 263 791 c 0
 263 1324 261 1311 130 1326 c 2
 86 1331 l 2
 63 1333 63 1343 63 1370 c 0xbf
238 1326 m 1
 291 1294 295 1269 295 713 c 2
 295 305 l 2
 295 232 295 149 286 118 c 0
 271 66 248 58 248 58 c 1
 269 62 301 64 331 64 c 0x7f
 357 64 381 63 392 60 c 1xbf
 360 79 348 114 348 199 c 2
 348 289 l 2
 348 1055 342 830 342 1190 c 2
 342 1201 l 2
 342 1304 373 1325 373 1325 c 1
 352 1324 329 1323 304 1323 c 0
 279 1323 255 1324 238 1326 c 1
1143 56 m 1
 1164 60 1216 64 1246 64 c 0
 1272 64 1280 64 1291 61 c 1
 1259 80 1258 114 1258 199 c 2
 1258 289 l 2
 1258 1055 1255 830 1255 1190 c 2
 1255 1201 l 2
 1255 1326 1286 1332 1286 1332 c 1
 1272 1331 1254 1330 1235 1330 c 0
 1213 1330 1188 1331 1162 1334 c 1
 1225 1296 1200 1273 1210 305 c 0
 1210 248 1209 153 1199 118 c 0
 1184 66 1143 56 1143 56 c 1
EndSplineSet
Validated: 1
Layer: 2
SplineSet
1131 163 m 6
 1131 291 l 6
 1131 433 1131 650 1134 755 c 5
 386 755 l 5
 386 336 l 6
 386 73 407 90 549 78 c 4
 572 76 584 70 584 30 c 4
 584 5 558 -1 512 -1 c 4
 468 -1 407 4 329 4 c 4
 280 4 93 -8 58 -8 c 4
 35 -8 34 19 34 41 c 6
 34 46 l 6
 34 75 55 84 74 84 c 6
 141 84 l 6
 205 84 210 132 210 145 c 4
 211 171 213 153 213 791 c 6
 213 1126 l 6
 213 1307 192 1293 90 1304 c 6
 46 1309 l 6
 23 1311 21 1321 21 1348 c 4
 21 1380 41 1388 89 1388 c 4
 131 1388 195 1382 286 1382 c 4
 414 1382 489 1388 540 1388 c 4
 576 1388 594 1382 594 1368 c 4
 594 1299 551 1315 474 1304 c 4
 414 1296 400 1292 397 1206 c 6
 386 855 l 5
 1135 855 l 5
 1135 1120 l 6
 1135 1278 1122 1305 1026 1312 c 4
 972 1316 958 1322 958 1351 c 4
 958 1373 968 1388 1015 1388 c 4
 1054 1388 1150 1378 1232 1378 c 4
 1317 1378 1391 1394 1436 1394 c 4
 1466 1394 1484 1387 1484 1362 c 4
 1484 1314 1472 1310 1395 1304 c 4
 1316 1298 1304 1272 1304 1105 c 4
 1304 900 1308 257 1308 176 c 4
 1308 116 1310 80 1474 80 c 4
 1505 80 1512 72 1512 55 c 4
 1512 -2 1506 -15 1471 -15 c 4
 1433 -15 1362 0 1226 0 c 4
 1177 0 1089 -12 989 -12 c 4
 964 -12 947 3 947 26 c 4
 947 55 964 66 983 66 c 4
 1116 66 1131 84 1131 163 c 6
EndSplineSet
EndChar

StartChar: I
Encoding: 73 73 34
Width: 658
VWidth: 0
Flags: W
HStem: 6 55<49.1253 227.625 248 391.104 454.192 611.584> 1322 53<74.5705 240 240.552 392 449.293 609.589>
VStem: 258 34<249.51 1275.62> 348 76<81.9106 1306.38>
LayerCount: 3
Fore
SplineSet
48 23 m 0
 48 52 68 59 86 59 c 2
 96 59 l 2
 149 59 200 60 229 87 c 0
 255 112 256 100 256 621 c 2
 256 788 l 2
 256 892 258 975 258 1042 c 0
 258 1310 248 1313 144 1323 c 2
 114 1326 l 2
 91 1328 72 1341 72 1359 c 0
 72 1377 91 1386 113 1386 c 0
 152 1386 249 1375 313 1375 c 0
 533 1375 512 1383 566 1383 c 0
 598 1383 611 1379 611 1359 c 0
 611 1326 584 1333 524 1325 c 0
 426 1312 424 1287 424 1102 c 2
 424 1032 l 2
 424 845 426 822 426 239 c 0
 426 72 435 77 576 55 c 0
 604 50 616 33 616 18 c 0
 616 5 607 -8 590 -8 c 0
 555 -8 474 6 324 6 c 0
 275 6 188 -3 88 -3 c 0
 63 -3 48 0 48 23 c 0
239 1334 m 1
 277 1311 292 1291 292 1065 c 0
 292 991 291 894 291 769 c 2
 289 258 l 2
 289 198 288 138 280 113 c 0
 266 67 248 56 248 56 c 1
 263 59 291 61 320 61 c 0
 346 61 373 59 392 54 c 1
 358 74 345 111 345 196 c 2
 348 1197 l 2
 348 1300 392 1325 392 1325 c 1
 379 1323 363 1322 348 1322 c 0
 312 1322 272 1326 239 1334 c 1
EndSplineSet
Validated: 1
EndChar

StartChar: J
Encoding: 74 74 35
Width: 850
VWidth: 0
Flags: W
HStem: -137 94<130.5 354.415> 62 40<66.2623 138.398> 1323 58<215.661 394.86 405 552.468 618.207 769.835>
VStem: 18 30<-45.2298 38.8631> 426 36<129.537 1266.38> 512 87<197.285 1310.83>
LayerCount: 3
Fore
SplineSet
18 0 m 0
 18 54 55 102 106 102 c 0
 196 102 242 -43 304 -43 c 0
 422 -43 426 174 426 301 c 2
 426 329 l 2
 426 1042 422 899 422 1042 c 0
 422 1310 409 1319 310 1324 c 2
 252 1327 l 2
 229 1328 215 1338 215 1359 c 0
 215 1377 234 1382 256 1382 c 0
 295 1382 422 1381 486 1381 c 0
 706 1381 670 1386 724 1386 c 0
 756 1386 770 1378 770 1358 c 0
 770 1322 757 1331 697 1325 c 0
 601 1315 593 1272 593 1165 c 2
 593 1112 l 2
 593 779 599 548 599 408 c 0
 599 277 550 167 500 80 c 0
 380 -129 276 -137 210 -137 c 0
 51 -137 18 -56 18 0 c 0
48 -4 m 0
 48 -45 94 -86 143 -106 c 1
 143 -106 92 -54 92 0 c 0
 92 45 139 46 139 46 c 1
 139 46 126 62 104 62 c 0
 74 62 48 29 48 -4 c 0
405 1327 m 1
 449 1284 463 1291 463 1065 c 0
 463 1006 464 932 464 841 c 2
 462 311 l 2
 462 220 447 139 432 66 c 1
 460 79 512 184 512 354 c 0
 512 382 507 918 505 1200 c 0
 505 1303 553 1332 553 1332 c 1
 542 1330 508 1323 463 1323 c 0
 445 1323 426 1324 405 1327 c 1
EndSplineSet
Validated: 1
EndChar

StartChar: K
Encoding: 75 75 36
Width: 1450
VWidth: 0
Flags: W
HStem: 6 54<63.4353 235.907 258 391.104 443.2 619.581 1051 1153 1226.54 1405.44> 1311 57<51.9844 231.621 237.405 379 429.08 578.597 745.588 917.89 1077.18 1227.86> 1320 72<1077.18 1280.5>
VStem: 257 33<95.0179 1259.19> 337 82<71.6298 625 731.006 1310.3>
DStem2: 471 673 446 649 0.682235 -0.731133<0.491303 852.654> 560 762 509 711 0.678974 -0.734162<2.81457 920.476>
LayerCount: 3
Fore
SplineSet
49 1351 m 0xb8
 49 1368 66 1378 87 1378 c 0
 111 1378 233 1368 330 1368 c 0
 476 1368 536 1381 563 1381 c 0
 573 1381 583 1376 583 1358 c 0
 583 1311 541 1341 461 1311 c 0xd8
 422 1296 419 1280 419 1122 c 2
 419 1052 l 2
 419 875 423 816 423 757 c 0
 423 739 429 731 440 731 c 0
 454 731 481 761 514 797 c 0
 622 917 918 1247 918 1281 c 0
 918 1311 880 1315 840 1315 c 0
 761 1315 743 1329 743 1351 c 0
 743 1368 759 1382 777 1382 c 2
 1008 1380 l 2
 1030 1380 1207 1392 1229 1392 c 0
 1253 1392 1281 1387 1281 1361 c 0
 1281 1330 1239 1326 1190 1320 c 0
 1118 1310 1066 1312 838 1064 c 2
 560 762 l 1
 915 384 l 2
 1212 68 1223 65 1354 62 c 0
 1402 61 1406 56 1406 46 c 2
 1406 25 l 2
 1406 5 1403 -1 1383 -1 c 0
 1360 -1 1286 6 1227 6 c 0
 1173 6 1079 0 1063 -0 c 0
 1048 0 1049 3 1032 21 c 2
 446 649 l 1
 424 625 l 1
 425 527 426 421 426 239 c 2
 426 206 l 2
 426 71 431 59 576 52 c 0
 604 51 620 51 620 28 c 0
 620 15 616 -4 590 -4 c 0
 555 -4 474 6 324 6 c 0
 252 6 120 -6 91 -6 c 0
 71 -6 61 0 61 20 c 0
 61 52 91 54 107 54 c 0
 234 54 249 67 253 176 c 0
 255 226 257 305 257 434 c 0
 257 646 251 994 251 1094 c 0
 251 1300 242 1311 135 1316 c 2
 91 1318 l 2
 68 1319 49 1333 49 1351 c 0xb8
236 1321 m 1
 274 1298 284 1291 284 1065 c 0
 284 991 290 893 290 769 c 2
 292 258 l 2
 292 93 279 89 258 58 c 1
 274 60 297 60 320 60 c 0
 346 60 373 59 392 54 c 1
 358 74 346 95 345 196 c 2
 337 1192 l 2
 337 1295 379 1316 379 1316 c 1
 364 1314 343 1311 319 1311 c 0
 294 1311 266 1314 236 1321 c 1
471 673 m 1
 1051 48 l 1
 1153 52 l 1
 1096 86 1094 82 915 272 c 2
 622 583 l 26
 577 632 562 645 509 711 c 1
 471 673 l 1
EndSplineSet
Validated: 1
Layer: 2
SplineSet
392 269 m 2
 392 242 l 2
 392 72 414 85 550 69 c 0
 573 66 586 70 586 30 c 0
 586 5 580 -11 534 -11 c 0
 490 -11 364 1 286 1 c 0
 176 1 112 -12 75 -12 c 0
 39 -12 29 0 29 49 c 0
 29 73 48 90 74 90 c 2
 132 90 l 2
 177 90 212 96 212 156 c 0
 212 172 213 1150 213 1163 c 0
 213 1293 193 1294 127 1294 c 2
 74 1294 l 2
 54 1294 41 1313 41 1340 c 0
 41 1372 61 1388 93 1388 c 0
 135 1388 195 1378 286 1378 c 0
 444 1378 503 1386 529 1386 c 0
 558 1386 567 1372 567 1352 c 0
 567 1296 537 1316 460 1305 c 0
 400 1296 405 1286 404 1200 c 0
 402 1068 400 886 398 718 c 1
 828 1203 l 2
 841 1217 864 1249 864 1264 c 0
 864 1321 716 1295 716 1346 c 0
 716 1352 717 1392 772 1392 c 0
 832 1392 860 1389 902 1389 c 0
 1086 1389 1152 1406 1215 1406 c 0
 1242 1406 1256 1381 1256 1358 c 0
 1256 1324 1242 1303 1218 1302 c 2
 1155 1300 l 2
 1120 1299 1086 1295 1051 1262 c 0
 839 1064 747 952 549 753 c 1
 1181 68 1147 97 1244 86 c 0
 1292 81 1328 82 1328 47 c 0
 1328 -19 1297 -22 1279 -22 c 0
 1233 -22 1029 -6 1029 -6 c 2
 1007 -5 999 -4 960 34 c 0
 752 241 630 406 426 639 c 1
 396 608 l 1
 394 434 392 284 392 269 c 2
EndSplineSet
EndChar

StartChar: L
Encoding: 76 76 37
Width: 1187
VWidth: 0
Flags: W
HStem: -2 74<66.3987 244.479 248 392> 3 74<248.992 391.475 449.25 965.996> 1327 54<34.9922 388 460.091 652.781>
VStem: 264 31<118.891 1086.08> 350 76<97.6594 1302.68>
LayerCount: 3
Fore
SplineSet
34 1363 m 0xb8
 34 1385 56 1386 80 1386 c 0
 119 1386 188 1381 304 1381 c 0
 452 1381 539 1395 593 1395 c 0
 646 1395 656 1384 656 1365 c 0
 656 1349 640 1334 594 1332 c 2
 545 1330 l 2
 437 1326 419 1271 419 1039 c 0
 419 901 426 703 426 418 c 2
 426 340 l 2
 426 82 433 77 591 77 c 2
 611 77 l 2x78
 699 77 787 81 875 83 c 0
 955 85 951 84 966 107 c 0
 1122 356 1116 362 1137 362 c 0
 1151 362 1156 351 1156 344 c 0
 1156 326 1110 168 1094 15 c 0
 1093 3 1082 -2 1065 -2 c 0xb8
 787 1 656 3 581 3 c 0x78
 431 3 509 -2 102 -2 c 0
 77 -2 66 7 66 30 c 0
 66 51 81 58 100 59 c 0
 235 67 264 74 264 254 c 0
 264 330 266 468 266 616 c 0
 266 705 265 797 263 883 c 2
 258 1071 l 2
 255 1162 266 1261 218 1301 c 0
 188 1327 136 1329 102 1329 c 2
 79 1329 l 2
 55 1329 34 1336 34 1363 c 0xb8
233 1331 m 1
 286 1299 295 1273 295 717 c 2
 295 309 l 2
 295 236 294 166 286 135 c 0
 271 77 248 66 248 66 c 1
 269 70 301 72 331 72 c 0xb8
 357 72 381 71 392 68 c 1
 360 87 350 153 350 203 c 2
 350 293 l 2
 350 1059 342 834 342 1194 c 2
 342 1205 l 2
 342 1308 388 1331 388 1331 c 1
 364 1327 329 1327 306 1327 c 0
 279 1327 247 1329 233 1331 c 1
EndSplineSet
Validated: 1
EndChar

StartChar: M
Encoding: 77 77 38
Width: 2028
VWidth: 0
Flags: W
HStem: -10 95<457.083 642.122 965.841 1012.56> -5 63<92.468 255.56 1382.22 1545.33 1584 1643.25 1644.84 1692 1799.39 1966.68> 1321 58<64.9232 371 1613 1693 1763.5 1933.98>
VStem: 360 66<215.829 998.956> 1578 35<113.021 639.245> 1644 84<554.539 1297.6>
DStem2: 967 412 371 1328 0.482478 -0.875908<-1089.89 178.165> 972 106 497 922 -0.532018 0.846733<121.989 386.052> 1031 164 1050 52 0.429324 0.903151<-90.18 8.8293 98.3859 1049.07> 1582 1342 1584 1262 0.429324 0.903151<-99.5926 -0.238222>
LayerCount: 3
Fore
SplineSet
64 1361 m 2xbc
 64 1365 l 2
 64 1372 65 1379 81 1379 c 2
 397 1379 l 2
 417 1379 427 1379 445 1348 c 0
 730 857 884 569 967 412 c 2
 1023 307 l 2
 1041 273 1054 259 1060 259 c 0
 1066 259 1077 280 1090 307 c 2
 1582 1342 l 2
 1603 1386 1576 1373 1741 1383 c 0
 1804 1387 1821 1389 1840 1389 c 0
 1912 1389 1934 1384 1934 1349 c 0
 1934 1335 1926 1323 1899 1322 c 0
 1813 1318 1748 1325 1735 1224 c 0
 1732 1204 1728 1183 1728 1076 c 0
 1728 1044 1728 1004 1729 954 c 0
 1744 147 1729 90 1851 71 c 0
 1940 57 1967 69 1967 32 c 0
 1967 -2 1944 -5 1917 -5 c 0
 1806 -5 1755 8 1649 8 c 0
 1596 8 1526 -5 1416 -5 c 0
 1401 -5 1382 0 1382 22 c 0
 1382 58 1408 57 1421 58 c 0x7c
 1555 64 1578 80 1578 262 c 0
 1578 309 1576 356 1576 366 c 2
 1564 908 l 2
 1563 949 1560 1076 1548 1080 c 0
 1546 1080 1459 909 1458 908 c 2
 1050 52 l 2
 1035 20 1029 -10 1008 -10 c 2
 994 -10 l 2
 966 -10 913 213 497 922 c 0
 469 969 449 999 444 999 c 0
 433 999 431 940 426 711 c 0
 422 516 419 302 419 301 c 0
 419 162 448 121 494 94 c 0
 573 48 644 88 644 26 c 0
 644 0 617 0 589 0 c 0
 508 0 563 6 374 6 c 0
 262 6 186 2 132 2 c 0
 100 2 92 12 92 34 c 0
 92 59 110 62 138 63 c 0
 142 63 147 64 152 64 c 0
 355 69 332 202 349 586 c 0
 353 678 360 968 360 968 c 2
 360 976 360 984 360 992 c 0
 360 1140 356 1139 341 1165 c 2
 284 1261 l 2
 272 1281 225 1310 154 1321 c 0
 98 1329 64 1316 64 1361 c 2xbc
254 1326 m 1
 287 1312 314 1280 326 1260 c 0
 633 773 805 450 959 132 c 1
 972 106 l 2
 980 91 983 85 987 85 c 0xbc
 990 85 988 85 1031 164 c 1
 1007 180 1003 180 967 246 c 2
 764 619 l 1
 371 1328 l 1
 254 1326 l 1
1584 69 m 1
 1609 73 1628 74 1644 74 c 0
 1662 74 1677 72 1692 70 c 1
 1670 130 1665 74 1647 961 c 0
 1645 1036 1644 1092 1644 1135 c 0
 1644 1261 1655 1272 1693 1327 c 1
 1613 1327 l 1
 1584 1262 l 1
 1594 933 1613 309 1613 276 c 0
 1613 268 1611 180 1611 177 c 0
 1611 114 1584 69 1584 69 c 1
EndSplineSet
Validated: 1
EndChar

StartChar: N
Encoding: 78 78 39
Width: 1686
VWidth: 0
Flags: W
HStem: -9 93<117.612 304.061> -2 63<500.018 664.989> 1291 78<34.689 252.875> 1314 55<229 357.972> 1331 63<1155.18 1307.78>
VStem: 360 55<282.09 689.587> 1378 71<287 839.589>
DStem2: 284 1266 243 1257 0.679091 -0.734054<-71.5043 153.055 450.182 1643.55> 449 1321 336 1314 0.670621 -0.7418<-70.5875 1390.03>
LayerCount: 3
Fore
SplineSet
30 1348 m 0xa6
 30 1368 44 1369 81 1369 c 2xa6
 397 1369 l 2x16
 403 1369 419 1358 449 1321 c 0
 652 1066 514 1240 1378 287 c 1
 1378 442 l 2
 1378 1231 1360 1302 1253 1331 c 0
 1218 1340 1155 1321 1155 1365 c 0
 1155 1391 1179 1394 1204 1394 c 2
 1224 1394 l 2
 1264 1394 1303 1391 1342 1391 c 0
 1439 1391 1569 1400 1609 1400 c 0
 1619 1400 1636 1390 1636 1375 c 0
 1636 1302 1452 1412 1450 1144 c 0
 1450 1097 1449 1051 1449 1005 c 0
 1449 855 1454 558 1454 256 c 0
 1454 18 1465 59 1465 12 c 0
 1465 -4 1460 -13 1445 -13 c 0
 1409 -13 1389 11 1140 290 c 2
 1140 290 869 599 818 652 c 0
 646 833 446 1042 445 1042 c 0
 428 1042 415 303 415 301 c 0
 415 162 448 121 494 94 c 0
 532 72 534 63 631 61 c 0
 650 61 665 54 665 30 c 0
 665 4 661 -2 599 -2 c 0x4e
 518 -2 432 6 374 6 c 0
 262 6 208 -9 154 -9 c 0
 122 -9 114 11 114 23 c 0
 114 72 177 44 258 84 c 0
 347 128 323 202 348 586 c 0
 354 678 360 968 360 968 c 2
 360 976 360 984 360 992 c 0
 360 1140 341 1158 322 1177 c 2
 243 1257 l 2
 229 1272 206 1284 190 1291 c 0
 96 1336 30 1295 30 1348 c 0xa6
229 1314 m 17x16
 246 1298 256 1297 284 1266 c 2
 851 662 l 1
 1206 262 l 1
 1396 64 l 1
 1405 57 l 1
 1401 98 1398 109 1398 142 c 2
 1398 160 l 1
 1386 167 1376 176 1364 188 c 2
 1244 313 l 1
 482 1144 l 2
 429 1201 390 1248 336 1314 c 9
 229 1314 l 17x16
EndSplineSet
Validated: 1
EndChar

StartChar: O
Encoding: 79 79 40
Width: 1543
VWidth: 0
Flags: W
HStem: -39 72<615.664 1001.69> 1371 54<567.353 907.615>
VStem: 44 34<544.106 851.913> 134 90<457.825 982.475> 1318 28<462.884 796.39> 1410 92<419.405 917.116>
LayerCount: 3
Fore
SplineSet
44 695 m 0
 44 1067 275 1425 793 1425 c 0
 1285 1425 1502 1047 1502 683 c 0
 1502 324 1263 -39 804 -39 c 0
 261 -39 44 322 44 695 c 0
78 693 m 0
 78 284 397 72 423 72 c 0
 424 72 425 72 425 73 c 0
 425 82 134 284 134 703 c 0
 134 820 158 922 185 1004 c 0
 230 1139 288 1220 288 1221 c 0
 288 1222 287 1222 287 1222 c 1
 269 1222 78 1030 78 693 c 0
224 735 m 0
 224 372 443 33 803 33 c 0
 1247 33 1318 410 1318 615 c 0
 1318 1228 978 1371 752 1371 c 0
 485 1371 337 1244 270 1069 c 0
 231 968 224 852 224 735 c 0
1083 1289 m 0
 1083 1280 1346 1103 1346 629 c 0
 1346 265 1201 170 1201 165 c 0
 1201 164 1204 164 1204 164 c 1
 1214 164 1309 239 1361 363 c 0
 1393 439 1410 537 1410 658 c 0
 1410 1067 1111 1290 1085 1290 c 0
 1084 1290 1083 1290 1083 1289 c 0
EndSplineSet
Validated: 1
Layer: 2
SplineSet
793 -39 m 4
 297 -39 47 332 47 702 c 4
 47 1092 293 1435 789 1435 c 4
 1301 1435 1553 1060 1553 688 c 4
 1553 323 1310 -39 793 -39 c 4
773 1351 m 4
 390 1351 294 986 294 745 c 4
 294 410 474 60 806 60 c 4
 1108 60 1309 228 1309 662 c 4
 1309 1119 1063 1351 773 1351 c 4
EndSplineSet
EndChar

StartChar: P
Encoding: 80 80 41
Width: 1225
VWidth: 0
Flags: W
HStem: -10 61<31.2538 196.587> 5 55<63.339 206.945 223 367> 637 43<414.896 697.398> 1317 58<33.061 348.91> 1334 59<420.511 734.219>
VStem: 226 40<86.5312 480.156> 245 36<116.492 1255.23> 329 81<92.4453 638.998 681.309 1328.07> 968 31<920.433 1095.93> 1054 90<858.811 1158.85>
LayerCount: 3
Fore
SplineSet
31 14 m 0xa3c0
 31 43 40 51 78 51 c 0
 105 51 193 60 226 105 c 0xa5c0
 240 124 245 332 245 440 c 2
 246 954 l 2
 246 1288 245 1317 110 1317 c 2
 71 1317 l 2
 53 1317 33 1321 33 1348 c 0
 33 1373 54 1375 80 1375 c 0xb3c0
 99 1375 126 1374 160 1374 c 0
 305 1374 401 1393 616 1393 c 0
 760 1393 860 1363 948 1322 c 0
 1042 1278 1144 1145 1144 1020 c 0
 1144 867 1065 786 962 723 c 0
 830 642 658 637 540 637 c 0
 506 637 471 639 437 639 c 0
 420 639 410 636 410 620 c 2
 410 250 l 2
 410 134 415 118 449 91 c 0
 513 42 661 79 661 22 c 0
 661 0 643 -7 622 -7 c 0
 589 -7 457 5 291 5 c 0x6bc0
 154 5 90 -10 62 -10 c 0
 44 -10 31 -4 31 14 c 0xa3c0
216 1329 m 1
 236 1313 272 1293 274 1161 c 0
 281 596 281 686 281 537 c 2
 281 410 l 2x63c0
 281 230 276 146 266 115 c 0
 252 69 223 57 223 57 c 1
 249 59 277 60 304 60 c 0x65c0
 322 60 349 60 367 58 c 1
 332 113 329 164 329 381 c 2
 328 1208 l 2
 328 1273 330 1311 350 1331 c 1
 328 1328 303 1327 284 1327 c 0
 262 1327 231 1328 216 1329 c 1
407 1172 m 2
 411 742 l 2
 411 688 415 680 484 680 c 0
 565 680 644 686 713 704 c 0
 862 744 968 856 968 1024 c 0
 968 1064 939 1207 793 1282 c 0
 726 1317 612 1334 518 1334 c 0x29c0
 412 1334 414 1315 409 1243 c 0
 408 1226 407 1195 407 1172 c 2
809 719 m 0
 809 718 812 718 812 718 c 1
 819 724 1054 768 1054 1024 c 0
 1054 1209 838 1305 817 1305 c 0
 816 1305 814 1305 814 1304 c 2
 814 1304 999 1211 999 1004 c 0
 999 970 999 934 981 896 c 0
 924 776 809 721 809 719 c 0
EndSplineSet
Validated: 1
EndChar

StartChar: Q
Encoding: 81 81 42
Width: 1595
VWidth: 0
Flags: W
HStem: -339 24<1395.69 1449> -28 61<617.022 866.824> 1359 55<557.951 921.851>
VStem: 49 32<545.478 865.297> 134 90<471.607 1017.27> 1310 30<455.537 794.217> 1390 111<409.568 928.531>
LayerCount: 3
Fore
SplineSet
49 695 m 0
 49 1104 288 1414 770 1414 c 0
 1074 1414 1207 1325 1328 1180 c 0
 1439 1047 1501 859 1501 672 c 0
 1501 391 1360 100 1045 10 c 1
 1188 -14 1422 -261 1584 -261 c 0
 1680 -261 1713 -238 1725 -238 c 0
 1730 -238 1732 -242 1733 -255 c 2
 1735 -294 l 2
 1735 -303 1697 -339 1518 -339 c 0
 1245 -339 1115 -195 870 -60 c 0
 836 -41 806 -30 780 -28 c 0
 444 -9 354 70 264 151 c 0
 113 288 49 488 49 695 c 0
81 693 m 0
 81 284 380 75 406 75 c 0
 407 75 408 75 408 76 c 0
 408 85 134 284 134 703 c 0
 134 1071 280 1206 280 1223 c 0
 280 1224 279 1224 279 1224 c 1
 265 1224 172 1130 108 924 c 0
 88 859 81 781 81 693 c 0
224 735 m 0
 224 567 306 33 803 33 c 0
 1247 33 1310 406 1310 635 c 0
 1310 894 1198 1359 750 1359 c 0
 466 1359 333 1223 266 1048 c 0
 227 947 224 852 224 735 c 0
883 -22 m 17
 1091 -137 1291 -306 1449 -315 c 1
 1224 -197 1171 -112 970 -8 c 9
 883 -22 l 17
1062 1288 m 0
 1062 1279 1340 1120 1340 646 c 0
 1340 282 1201 170 1201 165 c 0
 1201 164 1204 164 1204 164 c 1
 1214 164 1300 242 1352 366 c 0
 1384 442 1390 539 1390 660 c 0
 1390 866 1300 1111 1198 1204 c 0
 1137 1260 1074 1289 1064 1289 c 0
 1063 1289 1062 1289 1062 1288 c 0
EndSplineSet
Validated: 1
Layer: 2
SplineSet
28 672 m 0
 28 1079 263.093538113 1434 762 1434 c 0
 1294.86171875 1434 1508 1023.10625 1508 704 c 0
 1508 440 1407 259 1292 144 c 0
 1236 88 1157 44 1060 16 c 5
 1202 -24 1461 -336 1597 -336 c 4
 1730 -336 1741 -288 1764 -288 c 4
 1772 -288 1793 -295 1793 -311 c 4
 1793 -381 1657 -462 1509 -462 c 4
 1315.4075651 -462 1154.63530668 -303.120509279 1025.99992916 -179.417473989 c 4
 1000.76487404 -155.150021484 976.766595882 -132.236322938 953.999935992 -112.14144861 c 4
 902.787522262 -66.9390771215 857.807116113 -36 819 -36 c 5
 747 -41 759 -45 748 -45 c 0
 230 -45 28 345 28 672 c 0
706 1347 m 0
 459 1347 236 1150 236 776 c 0
 236 277 507 32 828 32 c 0
 1128.54777886 32 1297.40136719 363.893554688 1297.40136719 694.204101562 c 0
 1297.40136719 1021.37890625 1132.02217786 1347 706 1347 c 0
EndSplineSet
EndChar

StartChar: R
Encoding: 82 82 43
Width: 1513
VWidth: 0
Flags: W
HStem: 0 86<64.075 231.033 1193.05 1420.65> 0 41<1181.01 1208> 5 57<223 362 455.877 650.464> 679 45<414.695 631.533> 1319 61<412.378 790.403> 1320 49<11.0586 189.418 216 345.95>
VStem: 237 31<95.9844 1244.64> 328 82<94.2312 678.991 726.372 1317.09> 894 34<919.475 1107.04> 991 77<900.917 1162.96>
LayerCount: 3
Fore
SplineSet
11 1348 m 0x37c0
 11 1365 16 1369 26 1369 c 0x37c0
 93 1369 151 1363 254 1363 c 0
 399 1363 401 1380 616 1380 c 0
 752 1380 850 1354 916 1310 c 0
 1040 1226 1068 1108 1068 1038 c 0
 1068 765 760 726 760 710 c 0
 760 686 842 711 1081 357 c 0
 1171 223 1244 86 1355 86 c 0
 1416 86 1446 142 1462 142 c 0
 1474 142 1478 134 1478 123 c 0
 1478 62 1373 0 1296 0 c 0x9bc0
 1074 0 971 204 870 345 c 0
 810 429 713 597 652 644 c 0
 618 670 578 679 437 679 c 0
 420 679 410 666 410 650 c 2
 410 250 l 2
 410 31 509 72 614 55 c 0
 637 52 652 44 652 24 c 0
 652 2 636 -2 615 -2 c 0
 582 -2 457 5 291 5 c 0
 145 5 125 -7 83 -7 c 0
 57 -7 56 8 56 19 c 0
 56 76 124 37 203 74 c 0
 236 89 237 160 237 302 c 2
 236 1119 l 2
 236 1271 205 1320 101 1320 c 2
 40 1320 l 2
 17 1320 11 1321 11 1348 c 0x37c0
216 1316 m 1
 237 1293 263 1266 263 1161 c 0
 263 722 269 679 269 611 c 2
 268 184 l 2
 268 62 225 65 223 59 c 1
 249 61 277 62 304 62 c 0
 322 62 344 62 362 60 c 1
 327 115 330 164 328 381 c 0
 326 651 321 1164 321 1191 c 0
 321 1252 331 1299 350 1318 c 1
 328 1315 303 1314 284 1314 c 0
 262 1314 231 1315 216 1316 c 1
407 1172 m 2
 411 785 l 2
 411 725 413 724 538 724 c 2
 570 724 l 2
 765 724 894 838 894 1022 c 0
 894 1178 753 1264 711 1280 c 0
 616 1317 538 1319 502 1319 c 0x1bc0
 400 1319 414 1315 409 1243 c 0
 408 1226 407 1195 407 1172 c 2
662 670 m 1
 880 452 948 210 1134 77 c 0
 1178 45 1208 41 1208 41 c 1x53c0
 1104 159 1152 96 995 321 c 0
 925 421 911 457 825 553 c 0
 735 653 687 658 662 670 c 1
714 1303 m 0
 714 1292 928 1248 928 1020 c 0
 928 848 801 767 801 763 c 0
 801 762 804 762 804 762 c 1
 810 767 991 845 991 1042 c 0
 991 1214 796 1305 719 1305 c 0
 715 1305 714 1304 714 1303 c 0
EndSplineSet
Validated: 1
EndChar

StartChar: S
Encoding: 83 83 44
Width: 1000
VWidth: 1020
Flags: W
HStem: -29 74<381.842 675.275> 147 60<124.143 166.099> 1243 59<660.928 737.882> 1340 54<308.717 551.369>
VStem: 81 31<949.584 1157.69> 140 76<984.454 1260.37> 148 36<321.094 361> 736 51<1122 1249> 819 35<276.455 471.639> 891 66<256.817 550.573>
LayerCount: 3
Fore
SplineSet
74 135 m 0xfdc0
 74 163 85 140 131 456 c 0
 132 464 137 497 160 497 c 0
 183 497 184 475 184 448 c 2
 184 442 l 2xfbc0
 184 314 256 45 542 45 c 0
 742 45 819 239 819 355 c 0
 819 442 803 509 733 560 c 0
 512 721 81 673 81 1045 c 0
 81 1285 257 1394 416 1394 c 0
 591 1394 699 1302 722 1302 c 0
 749 1302 748 1381 783 1381 c 0
 793 1381 800 1377 800 1355 c 0
 800 1339 787 1290 787 1191 c 0
 787 1093 800 1045 800 1029 c 0
 800 1009 797 1000 779 1000 c 0
 752 1000 737 1099 675 1177 c 0
 593 1281 480 1340 400 1340 c 0
 302 1340 216 1266 216 1114 c 0
 216 820 598 915 824 726 c 0
 901 662 957 567 957 427 c 0
 957 324 925 231 872 159 c 0
 810 74 724 -29 504 -29 c 0
 283 -29 146 147 142 147 c 0
 130 147 113 115 91 115 c 0
 78 115 74 127 74 135 c 0xfdc0
112 1057 m 0
 112 678 545 760 765 578 c 0
 822 530 854 469 854 393 c 0
 854 277 796 170 796 170 c 1
 796 170 891 242 891 417 c 0
 891 645 682 695 524 753 c 0
 338 821 140 827 140 1121 c 0xfdc0
 140 1225 189 1284 189 1284 c 1
 189 1284 112 1240 112 1057 c 0
124 207 m 1
 164 198 141 194 268 81 c 1
 204 168 154 267 148 361 c 1xfbc0
 124 207 l 1
520 1334 m 1
 588 1293 686 1239 740 1122 c 1
 737 1145 736 1172 736 1195 c 0
 736 1213 737 1230 738 1249 c 1
 733 1244 726 1243 720 1243 c 0
 694 1243 683 1267 520 1334 c 1
EndSplineSet
EndChar

StartChar: T
Encoding: 84 84 45
Width: 1440
VWidth: 1000
Flags: W
HStem: 6 57<440.379 619.123 645 782 859.145 1038.39> 1304 63<197.25 800 846.399 1221>
VStem: 652 34<122.047 1254.93> 737 76<97.6907 1278.71>
LayerCount: 3
Fore
SplineSet
23 1028 m 0
 23 1035 24 1045 26 1054 c 2
 87 1352 l 2
 90 1366 93 1367 103 1367 c 2
 1307 1378 l 2
 1324 1378 1326 1367 1330 1341 c 2
 1381 1074 l 2
 1383 1065 1384 1056 1384 1049 c 0
 1384 1042 1382 1037 1377 1037 c 0
 1362 1037 1341 1076 1333 1090 c 2
 1205 1299 l 2
 1199 1310 1194 1310 1184 1310 c 2
 988 1310 l 2
 896 1310 820 1309 819 1176 c 0
 814 481 813 394 813 307 c 0
 813 120 827 56 990 56 c 0
 1022 56 1039 52 1039 28 c 0
 1039 8 1031 -8 1005 -8 c 0
 995 -8 865 6 720 6 c 0
 647 6 482 -9 474 -9 c 0
 450 -9 440 2 440 30 c 0
 440 59 473 59 508 59 c 2
 530 59 l 2
 643 59 648 116 648 300 c 0
 648 356 652 534 652 560 c 2
 652 1173 l 2
 652 1290 622 1304 533 1304 c 2
 238 1304 l 2
 218 1304 211 1298 204 1286 c 2
 60 1042 l 2
 50 1025 38 1015 31 1015 c 0
 25 1015 23 1020 23 1028 c 0
603 1314 m 1
 651 1299 684 1282 684 1133 c 2
 686 217 l 2
 686 131 661 82 645 61 c 1
 663 62 681 63 701 63 c 0
 728 63 758 62 782 60 c 1
 746 85 737 147 737 215 c 2
 742 1174 l 2
 742 1237 751 1279 800 1314 c 1
 603 1314 l 1
EndSplineSet
Validated: 1
EndChar

StartChar: U
Encoding: 85 85 46
Width: 1697
VWidth: 0
Flags: W
HStem: -18 78<681.815 1141.32> 1330 51<91.2544 230.502 255 388 461.955 599.954 1166.54 1307.93>
VStem: 263 33<369.125 1281.15> 348 78<340.569 1307.23> 1357 77<292.96 1283.77>
LayerCount: 3
Fore
SplineSet
91 1361 m 0
 91 1384 95 1389 126 1389 c 0
 164 1389 190 1381 304 1381 c 0
 452 1381 521 1388 576 1388 c 0
 597 1388 600 1377 600 1358 c 0
 600 1341 597 1332 545 1330 c 0
 430 1327 428 1275 428 1061 c 0
 428 884 426 928 426 618 c 0
 426 333 508 60 896 60 c 0
 1016 60 1151 69 1242 168 c 0
 1346 282 1357 392 1357 638 c 0
 1357 1036 1352 952 1350 1071 c 0
 1349 1139 1355 1211 1316 1292 c 0
 1301 1323 1271 1328 1242 1330 c 0
 1236 1330 1230 1331 1224 1331 c 0
 1194 1333 1166 1334 1166 1361 c 0
 1166 1389 1178 1393 1192 1393 c 0
 1299 1393 1371 1382 1388 1382 c 0
 1466 1382 1510 1394 1588 1394 c 0
 1603 1394 1612 1385 1612 1368 c 0
 1612 1308 1482 1375 1444 1260 c 0
 1434 1230 1433 1188 1433 1129 c 2
 1433 1070 l 2
 1433 963 1434 813 1434 600 c 0
 1434 370 1408 203 1267 88 c 0
 1160 0 1010 -18 840 -18 c 0
 603 -18 406 48 305 266 c 0
 272 338 263 431 263 543 c 2
 263 1088 l 2
 263 1303 258 1325 129 1329 c 0
 105 1330 91 1334 91 1361 c 0
255 1333 m 1
 291 1311 297 1243 297 1022 c 0
 297 922 296 790 296 617 c 0
 296 452 296 274 418 158 c 0
 517 64 559 62 559 62 c 1
 366 223 348 380 348 593 c 2
 348 639 l 2
 348 1060 349 1018 349 1060 c 0
 349 1077 350 1116 352 1204 c 0
 354 1302 388 1331 388 1331 c 1
 388 1331 368 1330 353 1330 c 0
 315 1330 262 1332 255 1333 c 1
EndSplineSet
Validated: 1
EndChar

StartChar: V
Encoding: 86 86 47
Width: 1782
VWidth: 0
Flags: W
HStem: -15 21G<895.5 912> 1319 58<225 368 442.565 599.612> 1338 53<1228.13 1372.95> 1373 20G<1657 1681.5>
VStem: 352 86<1148.36 1317.38> 1413 302<1248.5 1372.5>
DStem2: 890 62 933 5 0.430369 0.902653<0 109.205 181.688 1264.77>
LayerCount: 3
Fore
SplineSet
45 1362 m 0x9c
 45 1377 45 1383 98 1383 c 0
 156 1383 309 1377 348 1377 c 0xcc
 536 1378 513 1383 568 1383 c 0
 594 1383 601 1372 601 1356 c 0
 601 1340 585 1322 559 1322 c 0
 474 1322 438 1319 438 1263 c 0
 438 1239 523 1032 639 813 c 2
 836 440 l 2
 881 355 964 228 964 228 c 1
 1252 852 l 2
 1380 1130 1413 1229 1413 1268 c 0
 1413 1332 1284 1317 1240 1338 c 0
 1231 1343 1228 1349 1228 1361 c 0
 1228 1389 1248 1391 1263 1391 c 0xac
 1321 1391 1453 1379 1503 1379 c 0
 1556 1379 1646 1393 1668 1393 c 0
 1695 1393 1715 1381 1715 1364 c 0
 1715 1300 1586 1376 1508 1211 c 2
 933 5 l 2
 926 -9 915 -15 909 -15 c 2
 903 -15 l 2
 888 -15 878 -5 822 102 c 0
 297 1108 257 1209 197 1274 c 0
 133 1343 45 1305 45 1362 c 0x9c
225 1319 m 1
 316 1208 406 980 515 776 c 2
 807 228 l 2
 828 190 878 95 890 62 c 1
 901 90 916 123 933 153 c 1
 879 185 772 399 628 679 c 0
 378 1164 352 1199 352 1261 c 0
 352 1300 368 1319 368 1319 c 1
 340 1317 322 1317 302 1317 c 0
 282 1317 261 1317 225 1319 c 1
EndSplineSet
Validated: 1
EndChar

StartChar: W
Encoding: 87 87 48
Width: 1926
VWidth: 0
Flags: W
HStem: -14 21G<1333 1355> 1318 69<183 342 418.924 571.765 728.255 857.75 864 981 1060.57 1214.63 1447.67 1622.06> 1378 20G<1801.5 1849>
VStem: 311 100<1072.34 1313.18> 962 94<1127.69 1319.54> 1633 257<1214.5 1373>
DStem2: 303 1074 214 1224 0.324521 -0.945879<-242.123 1054.7> 470 1012 327 1152 0.327175 -0.944964<-233.462 804.51> 676 144 696 -2 0.305405 0.952223<-70.7872 0> 912 1234 960 965 0.315446 -0.948944<-102.178 270.407 365.583 1008.84> 1326 82 1373 5 0.289097 0.9573<0 125.989 233.426 620.928>
LayerCount: 3
Fore
SplineSet
59 1366 m 0xbc
 59 1386 74 1389 101 1389 c 0
 176 1389 228 1381 292 1381 c 0
 350 1381 428 1387 486 1387 c 0
 536 1387 572 1386 572 1348 c 0
 572 1321 553 1318 528 1318 c 2
 494 1318 l 2
 434 1318 411 1293 411 1241 c 0
 411 1191 434 1115 470 1012 c 2
 731 251 l 1
 960 965 l 1
 838 1362 875 1307 763 1321 c 0
 741 1324 728 1332 728 1346 c 0
 728 1361 730 1387 783 1387 c 0xdc
 841 1387 889 1385 928 1385 c 0
 1116 1386 1117 1392 1172 1392 c 0
 1212 1392 1215 1376 1215 1366 c 2
 1215 1358 l 2
 1215 1332 1194 1328 1177 1328 c 0
 1092 1328 1056 1312 1056 1256 c 0
 1056 1201 1395 305 1395 305 c 1
 1489 637 1633 1198 1633 1231 c 0
 1633 1263 1625 1303 1586 1314 c 0
 1535 1329 1446 1315 1446 1362 c 0
 1446 1390 1484 1392 1504 1392 c 0
 1562 1392 1619 1390 1669 1390 c 0
 1722 1390 1780 1398 1823 1398 c 0
 1875 1398 1890 1380 1890 1366 c 0
 1890 1321 1829 1357 1778 1302 c 0
 1765 1289 1756 1274 1752 1260 c 2
 1639 904 l 2
 1542 596 1578 712 1522 518 c 2
 1373 5 l 2
 1368 -9 1369 -14 1341 -14 c 0
 1325 -14 1324 -10 1270 136 c 2
 1000 878 l 1
 1000 878 834 335 696 -2 c 0
 689 -20 672 -24 661 -24 c 0
 651 -24 640 -18 636 -6 c 2
 537 292 l 1
 316 926 l 2
 283 1021 256 1120 214 1224 c 0
 152 1374 59 1294 59 1366 c 0xbc
183 1324 m 1
 240 1270 251 1224 303 1074 c 2
 650 78 l 1
 676 144 l 1
 327 1152 l 2
 316 1185 311 1211 311 1233 c 0
 311 1290 339 1314 342 1321 c 1
 183 1324 l 1
864 1328 m 1
 899 1291 909 1244 912 1234 c 2
 980 1020 l 2
 1002 953 1021 903 1033 870 c 2
 1326 82 l 1
 1352 165 l 1
 1266 387 1302 257 995 1138 c 0
 977 1190 962 1245 962 1272 c 0
 962 1302 971 1313 981 1328 c 1
 960 1327 946 1326 933 1326 c 0
 897 1326 898 1327 864 1328 c 1
EndSplineSet
EndChar

StartChar: X
Encoding: 88 88 49
Width: 1444
VWidth: 0
Flags: W
HStem: -3 65<28.1218 172.518 781.007 947.907 964 1122> 1307 60<224 389 456.021 605.852 813.605 995.74>
VStem: 28 326<16.5 151.5> 370 86<1196.81 1307.88> 389 67<1253.13 1307.82> 948 29<70.6378 164.872>
DStem2: 380 1114 282 1202 0.534838 -0.844954<-213.014 488.306 575.648 1117.93> 776 776 405 1178 0.529555 -0.848276<-22.3486 787.183>
LayerCount: 3
Fore
SplineSet
28 24 m 0xf4
 28 70 42 56 102 71 c 0
 143 81 192 94 225 135 c 0
 298 224 608 642 608 679 c 0
 608 709 590 733 516 846 c 2
 282 1202 l 2
 244 1260 217 1292 175 1301 c 0
 114 1314 70 1305 70 1350 c 0
 70 1374 85 1374 94 1374 c 0
 145 1374 164 1367 310 1367 c 0
 418 1367 548 1374 574 1374 c 0
 589 1374 607 1370 607 1346 c 0
 607 1315 582 1321 544 1318 c 0
 485 1314 456 1302 456 1278 c 0
 456 1253 717 834 730 834 c 0
 762 834 996 1217 996 1274 c 0
 996 1304 956 1308 913 1308 c 0
 846 1309 813 1315 813 1343 c 0
 813 1344 814 1355 814 1360 c 0
 814 1367 823 1375 841 1375 c 0
 864 1375 902 1370 951 1370 c 2
 1046 1370 l 2
 1111 1370 1233 1379 1286 1379 c 0
 1316 1379 1320 1360 1320 1351 c 0
 1320 1296 1225 1338 1149 1288 c 0
 1113 1264 1083 1225 1049 1177 c 0
 912 986 776 782 776 776 c 1
 1021 373 l 2
 1088 262 1159 158 1202 104 c 0
 1243 53 1376 76 1382 44 c 0
 1383 40 1384 33 1384 26 c 0
 1384 13 1378 0 1351 -0 c 0
 1334 0 1250 4 1185 4 c 0
 1044 3 880 -3 823 -3 c 0
 783 -3 781 17 781 29 c 0
 781 37 783 62 832 62 c 0
 848 62 864 61 881 61 c 0
 916 61 948 66 948 97 c 0
 948 167 904 216 877 262 c 2
 734 500 l 2
 695 563 667 609 658 609 c 0
 643 609 354 184 354 119 c 0
 354 34 551 95 551 35 c 0
 551 26 551 -4 514 -4 c 0
 457 -4 330 6 260 6 c 0
 195 6 123 -6 71 -6 c 0
 34 -6 28 9 28 24 c 0xf4
224 1310 m 1
 264 1291 319 1207 380 1114 c 0
 603 771 726 582 936 222 c 0
 968 168 977 136 977 115 c 0
 977 89 964 64 964 64 c 1
 989 65 1013 66 1038 66 c 2
 1122 64 l 1
 1122 64 1095 72 1048 148 c 2
 405 1178 l 2
 379 1219 370 1236 370 1251 c 0xf4
 370 1297 389 1307 389 1308 c 1xec
 374 1307 355 1307 340 1307 c 0
 303 1307 224 1310 224 1310 c 1
EndSplineSet
Validated: 1
EndChar

StartChar: Y
Encoding: 89 89 50
Width: 1459
VWidth: 0
Flags: W
HStem: -9 21G<970 994> 6 60<420.615 595.205 618 753> 1305 62<44.5698 187.617 210 359 928.224 1091.48 1242.89 1401.9>
VStem: 334 97<1144.72 1307.92> 622 36<112.273 579.991> 708 80<85.2473 643.145>
LayerCount: 3
Fore
SplineSet
43 1349 m 0x7c
 43 1372 61 1375 92 1375 c 0
 136 1375 200 1367 285 1367 c 0
 363 1367 471 1378 536 1378 c 0
 587 1378 591 1358 591 1348 c 2
 591 1336 l 2
 591 1305 431 1337 431 1260 c 0
 431 1205 492 1118 538 1035 c 0
 628 876 742 683 756 683 c 0
 786 683 1056 1135 1087 1214 c 0
 1095 1233 1095 1248 1095 1257 c 0
 1095 1299 1045 1310 982 1313 c 0
 948 1315 927 1316 927 1346 c 0
 927 1371 948 1377 961 1377 c 0
 978 1377 1070 1367 1139 1367 c 0
 1213 1367 1340 1381 1369 1381 c 0
 1401 1381 1403 1365 1403 1360 c 2
 1403 1348 l 2
 1403 1327 1398 1318 1353 1316 c 0
 1287 1313 1230 1270 1211 1245 c 0
 1058 1038 924 814 799 615 c 0
 789 598 788 557 788 539 c 2
 788 325 l 2
 788 256 790 175 806 114 c 0
 829 25 1026 99 1026 21 c 0
 1026 -5 1003 -9 985 -9 c 0xbc
 955 -9 908 6 699 6 c 0
 634 6 514 -6 462 -6 c 0
 442 -6 418 -2 418 26 c 0
 418 52 456 54 488 57 c 0
 610 68 622 78 622 325 c 0
 622 544 618 564 576 638 c 0
 166 1351 184 1304 101 1308 c 0
 69 1310 43 1313 43 1349 c 0x7c
210 1306 m 1
 263 1247 566 736 636 604 c 0
 649 580 658 580 658 332 c 0
 658 72 639 112 618 66 c 1x7c
 753 65 l 1
 753 65 717 111 714 165 c 0
 709 269 708 344 708 398 c 2
 708 528 l 2
 708 594 682 618 534 874 c 2
 371 1155 l 2
 343 1203 334 1235 334 1259 c 0
 334 1295 359 1310 359 1310 c 1
 321 1306 282 1305 252 1305 c 0
 235 1305 221 1305 210 1306 c 1
EndSplineSet
Validated: 1
EndChar

StartChar: Z
Encoding: 90 90 51
Width: 1331
VWidth: 0
Flags: W
HStem: -0 32<133 1135> 92 94<341.003 1015.61> 1210 28<177.405 883.65> 1290 82<150.112 1027>
VStem: 910 41<1197 1201.48>
DStem2: 90 70 133 32 0.607084 0.794638<-4.09165 85.1413 1244.71 1384.2 1418.26 1537.5>
LayerCount: 3
Fore
SplineSet
42 1032 m 0
 42 1143 76 1310 76 1350 c 0
 76 1366 73 1380 73 1396 c 0
 73 1424 86 1444 108 1444 c 0
 169 1444 128 1372 204 1372 c 0
 244 1372 843 1374 1138 1374 c 0
 1148 1374 1156 1357 1156 1349 c 0
 1156 1338 1149 1331 1143 1323 c 0
 603 589 341 287 341 212 c 0
 341 195 344 186 583 186 c 0
 1025 186 1026 204 1098 249 c 0
 1201 314 1163 528 1240 528 c 0
 1250 528 1263 524 1263 508 c 0
 1263 490 1204 29 1204 29 c 2
 1202 15 1196 2 1182 2 c 2
 121 -0 l 2
 98 0 66 0 66 24 c 0
 66 41 85 63 90 70 c 2
 797 1004 l 2
 871 1101 910 1176 910 1186 c 0
 910 1205 910 1210 517 1210 c 2
 389 1210 l 2
 257 1210 175 1210 156 1183 c 0
 83 1079 139 982 73 982 c 0
 68 982 42 984 42 1032 c 0
87 1173 m 1
 105 1184 116 1238 248 1238 c 2
 314 1238 l 2
 554 1238 577 1239 821 1239 c 0
 877 1239 905 1234 924 1229 c 0
 950 1222 951 1197 951 1197 c 1
 1027 1289 l 1
 960 1290 899 1290 841 1290 c 0
 718 1290 610 1291 492 1291 c 0
 377 1291 307 1290 257 1290 c 2
 204 1290 l 2
 131 1290 119 1315 119 1315 c 1
 110 1253 97 1209 87 1173 c 1
133 32 m 1
 1135 36 l 1
 1153 166 l 1
 1153 166 1131 92 925 92 c 0
 591 92 467 90 180 88 c 1
 133 32 l 1
EndSplineSet
Validated: 1
Layer: 2
SplineSet
127 1458 m 4
 188 1458 181 1380 257 1380 c 4
 295 1380 804 1376 1106 1376 c 6
 1121 1376 l 6
 1141 1376 1175 1372 1175 1343 c 4
 1175 1335 1172 1319 1163 1307 c 4
 431 359 359 272 359 229 c 4
 359 217 372 216 583 216 c 4
 831 216 951 229 1023 241 c 4
 1145 261 1134 308 1191 496 c 4
 1200 526 1227 540 1246 540 c 4
 1270 540 1281 524 1281 505 c 4
 1281 448 1248 317 1216 29 c 4
 1214 15 1196 2 1182 2 c 6
 136 0 l 6
 91 0 75 14 75 35 c 4
 75 60 97 94 124 130 c 4
 890 1161 924 1169 924 1188 c 4
 924 1199 919 1200 840 1200 c 6
 364 1200 l 6
 248 1200 185 1199 170 1172 c 4
 157 1148 145 1124 143 1102 c 4
 137 1032 148 972 86 972 c 4
 81 972 46 984 46 1027 c 4
 46 1091 79 1299 79 1340 c 4
 79 1356 82 1400 82 1416 c 4
 82 1444 105 1458 127 1458 c 4
EndSplineSet
EndChar

StartChar: ae
Encoding: 230 230 53
Width: 1325
VWidth: 0
Flags: W
HStem: -26 120<772.617 1058.2> -21 75<266.304 452.671> 765 95<697.953 942.544> 791 76<259.582 447.498>
VStem: 71 155<85.4641 317.325> 512 126<242 390 468.097 708.564> 1014 218<589.062 698.742>
DStem2: 630 460 638 390 0.940412 0.340036<0 413.94>
LayerCount: 3
Fore
SplineSet
62 702 m 0x5e
 62 787 222 867 358 867 c 0x5e
 444 867 550 846 608 736 c 1
 684 837 793 860 871 860 c 0
 1067 860 1232 690 1232 635 c 0
 1232 595 1153 572 974 509 c 2
 638 390 l 1
 638 390 660 94 922 94 c 0
 1107 94 1179 229 1218 229 c 0
 1237 229 1250 217 1250 200 c 0
 1250 146 1086 -26 881 -26 c 0xae
 639 -26 566 154 566 154 c 1
 566 154 534 -21 284 -21 c 0
 115 -21 71 82 71 181 c 0
 71 238 105 363 226 402 c 0
 486 486 503 454 503 509 c 2
 503 543 l 2
 503 688 475 791 342 791 c 0
 213 791 226 619 141 619 c 0
 123 619 62 629 62 702 c 0x5e
226 221 m 0
 226 121 262 54 356 54 c 0
 385 54 512 75 512 224 c 2
 512 420 l 1
 274 368 226 348 226 221 c 0
627 504 m 0
 627 479 630 460 630 460 c 1
 984 588 l 2
 1012 598 1014 613 1014 632 c 0
 1014 684 904 765 801 765 c 0x2e
 711 765 627 703 627 504 c 0
EndSplineSet
Validated: 1
EndChar

StartChar: oe
Encoding: 339 339 54
Width: 1616
VWidth: 0
Flags: W
HStem: -26 124<1063.64 1354.56> -17 73<377.479 634.866> 768 99<990.048 1217.2> 791 68<371.859 607.615>
VStem: 70 158<230.749 622.048> 775 129<271.969 390 459 618.721> 1310 206<590.522 686.167>
DStem2: 904 459 912 390 0.947813 0.318826<0 438.44>
LayerCount: 3
Fore
SplineSet
70 426 m 0x4e
 70 638 212 859 498 859 c 0x5e
 776 859 844 667 844 667 c 1
 845 668 929 867 1163 867 c 0
 1360 867 1516 685 1516 630 c 0
 1516 606 1499 587 1459 574 c 2
 912 390 l 1
 912 336 975 98 1229 98 c 0
 1393 98 1453 235 1497 235 c 0
 1508 235 1527 230 1527 208 c 0
 1527 116 1358 -26 1181 -26 c 0xae
 894 -26 837 178 837 178 c 1
 837 178 752 -17 499 -17 c 0
 156 -17 70 282 70 426 c 0x4e
228 427 m 0
 228 176 343 56 517 56 c 0
 652 56 775 169 775 414 c 0
 775 643 643 791 491 791 c 0
 328 791 228 646 228 427 c 0
904 459 m 1
 1279 595 l 2
 1307 606 1310 611 1310 628 c 0
 1310 654 1205 768 1082 768 c 0x2e
 913 768 904 525 904 470 c 2
 904 459 l 1
EndSplineSet
Validated: 1
EndChar

StartChar: comma
Encoding: 44 44 55
Width: 468
VWidth: 0
Flags: W
HStem: -268 84<104.378 241.864> 0 228<118.598 272.951>
VStem: 278 114<-146.063 60>
LayerCount: 3
Fore
SplineSet
91 115 m 0
 91 179 150 228 216 228 c 0
 338 228 392 120 392 0 c 0
 392 -137 276 -268 164 -268 c 0
 124 -268 103 -240 103 -216 c 0
 103 -199 114 -184 138 -184 c 0
 225 -184 278 -124 278 -69 c 0
 278 -37 266 -6 225 0 c 0
 141 13 91 48 91 115 c 0
EndSplineSet
Validated: 1
EndChar

StartChar: ampersand
Encoding: 38 38 56
Width: 1688
VWidth: 0
Flags: W
HStem: -28 31<520.247 796.007> 31 81<537.019 887> 328 45<801.814 937.446> 446 31<897.79 943.431> 547 29<894.632 950.118> 700 60<843.867 1097.33> 743 49<392.955 603.533> 893 52<402.075 600.24> 1208 49<539.684 629 1184.48 1265.13> 1293 25<342.26 460.186> 1340 61<347.097 584.687> 1368 49<1297.35 1443.39>
VStem: 68 30<403.238 615.95> 119 90<368.634 710.211 940.521 1210.67> 605 79<1257.67 1319.48> 620 60<807.883 872.343> 697 45<432.018 593.126> 867 21<486.657 536.619> 952 78<383.411 546.243> 1162 22<1255.72 1310.47> 1192 48<370.595 592.023> 1266 56<1245.28 1320.45> 1561 61<1038.34 1254.34>
LayerCount: 3
Fore
SplineSet
68 508 m 0xfdddfe
 68 732 236 842 236 842 c 1
 236 842 132 920 132 1088 c 0
 132 1276 329 1401 484 1401 c 0
 598 1401 684 1328 684 1285 c 0xf9eefe
 684 1242 650 1208 608 1208 c 0
 534 1208 494 1293 405 1293 c 0
 323 1293 202 1221 202 1075 c 0
 202 932 276 891 287 880 c 1
 287 880 365 945 494 945 c 0
 540 945 680 924 680 840 c 0
 680 744 492 743 492 743 c 1
 394 743 303 792 303 792 c 1xfbedfe
 303 792 209 713 209 522 c 0
 209 430 251 355 310 290 c 0
 421 168 605 112 784 112 c 0
 1051 112 1192 323 1192 483 c 0
 1192 567 1151 700 987 700 c 0
 767 700 742 553 742 512 c 0
 742 396 840 373 879 373 c 0
 949 373 952 420 952 440 c 2
 952 445 l 2
 952 446 951 446 949 446 c 0
 906 446 867 474 867 518 c 0
 867 556 901 576 936 576 c 0
 988 576 1030 528 1030 476 c 0
 1030 398 957 328 872 328 c 0
 740 328 697 446 697 544 c 0
 697 603 746 782 1030 837 c 0
 1150 860 1250 865 1345 895 c 0
 1472 935 1561 1023 1561 1165 c 0
 1561 1272 1458 1368 1357 1368 c 0
 1309 1368 1292 1350 1292 1328 c 0
 1292 1313 1322 1303 1322 1273 c 0
 1322 1234 1284 1200 1244 1200 c 0
 1207 1200 1162 1234 1162 1281 c 0
 1162 1363 1253 1417 1340 1417 c 0
 1566 1417 1622 1210 1622 1120 c 0
 1622 996 1582 912 1524 854 c 1
 1347 682 1170 751 1170 702 c 0
 1170 678 1240 626 1240 479 c 0
 1240 147 904 -28 668 -28 c 0
 290 -28 68 218 68 508 c 0xfdddfe
98 530 m 0
 98 219 330 3 653 3 c 0
 778 3 887 33 887 33 c 1
 887 33 832 31 755 31 c 0
 394 31 119 256 119 552 c 0
 119 636 146 696 146 696 c 1
 146 696 98 651 98 530 c 0
336 1304 m 2
 347 1307 361 1318 422 1318 c 0
 483 1318 527 1257 574 1257 c 0
 587 1257 605 1265 605 1278 c 0
 605 1316 532 1340 466 1340 c 0
 390 1340 336 1304 336 1304 c 2
348 835 m 1
 404 811 l 2
 428 801 461 792 505 792 c 0
 565 792 620 810 620 842 c 0xfbcdfe
 620 864 568 893 502 893 c 0
 418 893 348 835 348 835 c 1
838 733 m 1
 849 735 911 760 980 760 c 0xfdccfe
 1031 760 1208 762 1318 802 c 0
 1466 856 1524 963 1531 994 c 1
 1381 805 1201 849 962 789 c 0
 891 771 838 733 838 733 c 1
888 514 m 0
 888 494 900 477 923 477 c 0
 942 477 958 493 958 511 c 0
 958 529 942 547 923 547 c 0
 904 547 888 532 888 514 c 0
1184 1285 m 0
 1184 1262 1198 1243 1225 1243 c 0
 1247 1243 1266 1261 1266 1282 c 0
 1266 1303 1247 1323 1225 1323 c 0
 1203 1323 1184 1306 1184 1285 c 0
EndSplineSet
Validated: 1
EndChar

